<svg xmlns="http://www.w3.org/2000/svg" width="600" height="754"><defs/><path fill="#D87848" stroke="#D87848" d="M361 6l1 4 4-1-1-3 16 2h4l4 2 3-1 5 3 7 5 1-3 13 31-1 3 3 7 4 14-5 13q-38-4-60-24l-3 1-1-5-33-29 2-8-1-3 5 2 1-4 38 8 1-4-14-2 3-6 4-2z"/><path fill="#D87848" stroke="#D87848" d="M326 48l10 5 3 5 8 6 2-4 2 4 3-1-6 2 4 8-19 7 1-3 2-6-4 2-6 14 3-1 8-4 14-6 3 1 1-5 3 7-10 6 9 3 6-2-2 6 12-6-1 3 5 3 5 2-4 7 6 3-3 4-3-1 2 4-4 7 7 4-1 3 2 7 4 3 1 5 6 4 5 8 7 4 5-2 3 4h4l3-1-2-4h2l5 7 4-6 4 2 9-5-1-3 5 2 4-7 7-3 3-1-1-3h4l3-3 2-5 7-2-5 7-2 9-4 1v4l-2 11-4 1-2 6-11 13-4 2-3-1-1 3-3-1-3 3-14 4-3-1-11 3-10-2v4l-13-3-11-27-3 1v-4l-6-11-7-2-3 1 1-3-3-3-5-1q-16-3-19 7l-4 12 5 13 3-1-2 10 6 3 9 14 5 1 3 7 4-2-3 5-1 3-3-1 2 4-6 19-4 3 15 29 5 3v4l-2 6-3 7-46 6-37-20-3 12-5-9v-4l-5-21-3 1-1-15-7 4-4-35 19-29 3-3 6-22-8-23 30 12 2-19-5-21-1 9 4 18-2 5-7-4q-22.7-20.3-68-18l-14 2-28-6-7 5-2 4 1 3-5-2 2-9-1-3 3-3-1-3 8-4v-4l5-1 1-3 3 1 1-3 4 2v-4l3 1 1-3 5 2 1-4 7 2 1-4 8 4 3-5-5-1-3 1 18-14 3-5 1 4 4-1-2-5 4 1-1 3 18 4 6-2v4l8 4 12 14 1-3-1-3 5 12 4-3h4l-2-4v-4l3-3v4l9 5-1 3 6 4 5-7v-4l1-7 2 6 20-12 2 4 4-6-15 2V48zM219 74l-3 3 15 3 5-1-17-5zm99 46l-2 5-3 3 1 3-4 12 5 17q2-25 17-37l-14-3z"/><path fill="#D87848" stroke="#D87848" d="M379 78l7 2-2 9 2 4-3-1-7-2 3-12zM231 178l7 11-1 3-9-11 3-3zM443 252l13 11-3-1-10-10zM416 266l8 3 3 5 4 2h4l8 4q26.8 25.7 33 70l31 8 6-4 4 2 5 1-5 7-3-1-3 5h-32l-1-3 2-5-6 1 2 4h-2l-1-3-3 1-4-6 2-4-3 1-5-1 1-3-3-1 4-2-6-2 4-2-6-4 1-7-3-5-2-6 2-7-4-7-2-4 2-4h-4l2-4-32-18h4l-8-9 5 2 1-4zM453 268l17 13-3-1-5-3-3-3-6-6zM405 294l13 15h-2l-11-15zM379 310l31 2 4 7-2 5 4 1-2 7 4 3 6 12-6 4 6 2-39 17-9-7q-11.3-10.7-8-36l6-15 5-2zM433 348v10l-1-6-6-1 7-3zM439 358l2 4 3-1v8l3 5v2l-3 1-3 7-5-23 3-3zM421 360l5 3-4 2 1-3-7 3 4 2-3 1-5-3 9-5zM95 362l2 8 2-8 13 35h-2l-1-3-1 5 5 1 3 3 2 4-4-2-1-3-1 5 7 3 3 1-4 1 3 6 5-2 11 22 5-1 1-3 3 1 1-3 5 2 1-4 5 2 1-4 7 2 3-4 6 2 6-2 30 22 30 4 19-13 2-6-4-10 5-1 12 2 8-2 8 2 6-2 7-3 3 1 5-1-1-3 46 2 27-5-1-3 8 2q32.7-6.3 52-26l2 6 3-1-1 3 5 3 2 6 4 6-4 1 2 11-3 5-5-10-4 3 2 8-2 4h4l-3 3-13-9-3-5h-4l-3-3-6 4 8 6-1 3 3 1-1 3 3 3-5 1-5-3-1-3-1 7 4 6-1 3 3 5 4 14-2 8h4l-4 41-4-3h-2l4 11-5-2-1 3 3 5-4-2-3 12 4 4-4-3h-2l-2 8 2 4h-2l-1-3-5 15 1 3-3-1-2 8 1 3-3-1 2 4-6 2-4 11 4 1-3 1-3-1 2 4h-4l3 3v2l-4-2-1 4 4 1-11 25-3-1 4 6-2 9-4 5 2 5-4 5 2 10h-2l-1-3-1 13h4l-2 9 6 3 1 3 3-1-1 3 16-2 11 2-2 5 4 1 1-4q16 7 17 29l-7 9-7-4-5-12-1 3 2 8q-11.1 11.9-37 9-28.9-.1-41-17l2-22-8-26q18.4-26.6 16-74l-6-26q13-23 8-64l-2-32 4-14-10 8-13 21q-16 18-50 18l-25-7-1-3-3 7h4l2 22h-2l-1-3-5 15 1 3-5 1-11 13-13 8-7 4-10 4h-4l-21-9-9-31-6-4-31-18q-14-12.5-12-43l17-27 7-5-3-1-13 11-7 13-29-14 8-7-28-24-2-10 5 3 8 4 1-3-6-3-3-10-3 1 2-17 5-2 3 7 1 3 5 1 3 7 3-1 1 5 3-9h-4l2-6v-4l1-7 5 9-1 3 7-3-1-7-2 4v-22zm274 80l-4 2-11 13 2 9 17 8 28-4 7-11-2-8q-9-14-37-9zm-90 18l-4 2-9 21 19 11h4l8-4 7-9-2-14q-5-10-23-7zm-86 12l-2 4 6-2v4l6-2v4l7-3-17-5zm18 6l-2 4 4-2v4l4-2v4l4-2-1 3 5 3 1-5-15-7zm18 10l-3 3 12 8-2 4h6l-2-6-11-9zm150 124l-5 11 1 5 5-11-1-5z"/><path fill="#D87848" stroke="#D87848" d="M405 368l7 1q-27 14.6-68 13l-7-4v4l-5-2-2-7 5-1 14 4 6 4 44-10 6-2zM517 478l7 1-8 2 32 3 1-4 9 5-4 2 5 1 4-2 2 6 4-2 7 5-1 3 4 2 2-4 4 6-3 1 8 5 1 4 2-4 1 3-1 3 5 1-4 2 6 2-2 7-10-4-3-4-5-3 8 28-3 7-1-4-10-7-3-9-1 11v4q2.7 9.2-9 5l-30-22-22-4-58 26-20 2-7-2-1-4-10 8 4-6 13-5 1-5 12-10 3 1-2-4 7-11-1 3 1 3 5-1 2-9 4-1-2-12h2l1 3 4-2 4 6 1-7-1-3 6 2 3-1-4 6 3-1 27-13 1-5 6 2v-4l4-2zM111 546l21 6 3 4 3 11 2 6-19 27-25 19 1 3-3-1-1 3-3-1-3 5-5 1-1 5-3-1 2 4h-4l-4 12 1 3-3-1 2 6-4 1 2 5-4 1-2 11 3 7 20-2v4l9 5-2 4h4l-2 4h4l-2 6h4l-3 3-6 4-10-14-3 18-41 4-23-13-4-18 13-17 3-3 10-12 8-48 19-21 41-35 3-3 2-2zM231 588q22.4-4.4 29 7l-5-3-24-2-5 3 7 1 14-2 9 4 7 8v-4l5 2-1 4-3-1 3 3 7 2 4 9-2 4 8 4 2 4-4-2-1-3-1 5 5 11 2-4 1 13-4 6 4 6-5 1q-10.8 2.8-5-13l-4 2-7 13-5-2-3-12-10 12-19-4-6-31 6-21-59 10-19-7-2-6 7-9 30-4 24 2 20-6z"/><path fill="#FDFDFD" stroke="#FDFDFD" d="M0 0l372 1-27 11-12-2-17 9-6 52 2 6-7 9-12-14-3 3-3 11-18-26-28-10-33 23-9 3-37 23-2 16 25 33 6 4 45 39q-12 18-8 52l2 5 7-4-1 3-4 16 7 3 3-1v4l8 23 5 2 2-8 14 26 6-10 49 19 12 44-8 6-2 30v4l-3 3q-19.8 15.2-56 14h-8l-20-2-4 2-26-2q-46.1-1.1-74 16l-9-20-4-5q-20.1-20.8-22-57l-4 3h-2q-3-39.3 12-59l-24 10-9 12-1-4-10 4q-13.5 14.9-15 44l-4-6q-9.7 13.3-5 41 9.1 42.9 37 67l27 12-2 27 2 18-23 33-39 31-41 99L0 0zM395 0h205v513l-4-2-13-15-8-4q-18.4-17.6-56-16l-42 18-5-1-2-13 10 4 2-21-8-22 10-3-3-4-13-11-22-40 4-6q-2-22-17-31l-9-3-10-27 10 5 3 3 25 4q.2 24.7 17 36 11.7 10.3 38 6l19-13 4-34q-8.8-36.2-35-55l-35-15-2-4 3 1 38 2 41-27 11-17 29-6 4-7q12.9-11.1 10-38-4.8-31.2-26-46l-2-30-17-21-40-14q-27.3.7-39 17l-8 34 12 28-35 25-3-1-5 3-7 2q-4.4-39.6-33-58l-3-9 5-3 28 6 5-23q-6.1-38.9-27-63l-4-4z"/><path fill="#FDFDFD" stroke="#FDFDFD" d="M385 112l27 15 8 25q-9.7 3.6-6-9l-4-9-4-3-13-7-7 4-4-13 3-3zM335 144l25 8 16 31h-2l-3-5-4 6-1-10-4-3-11-13-13 3-2 12 2 9 4 3 6 9 8 1-1 3 3 1-3 1-5-1 1-3-4 2-2-6-5-3q-13.5-10.5-12-36l7-9zM599 532l1 222-206-1 30-13 2-17-10-19q-9.5-11-33-10h-4l-7-5-2-16q5.5-54 28-89l29 2 85-42 5-4 7 4 3 4q9.2 16.8 36 16l27-13 9-19zM231 560q34.5 20.7 87 22l6 35-16 72 17 51 25 13-350 1 1-46 12 16q20.3 11.7 54 10l33-14 4-17-15-23-14-2h-4l-3-9 21-43 39-16 7 18q28.1 16.1 77 10l-2 19 11 17 38 14 25-13 6-38-35-49-22-2-38 4v-2l36-28z"/><path fill="#632921" stroke="#632921" d="M487 52l-2 4-3 1 7 1 28-2 40 20-1-3-7-9-7-5 3 1 13 11 2 4-2 4h4l4 32-9 13-32-6-46 10q-18.9-13.1-15-49l15-23 8-4zM383 96l17 11 6 10-7-5-14-2-4 2 2-4 13-1-16-6 3-5zM321 120l9 3-15 35-3-17 9-21zM390 126l20 11 2 14-5 3-3-6-8-2-4-7-4-8 2-5zM335 140l17 5-3-1-12-2-7 5-4 12 2 10h-2l-2-14 7-13 4-2zM343 158l19 13 4 18-2 5-7 2-15-11-6-20 2-5 5-2zm4 4l-3 3 2 4 3 3 7-3-2-4-7-3zM389 226q33.2-2.2 47 15l14 20-11 3h-4q-19.9-3.9-26 6-18.4-13.6-23-41l3-3zM343 408l35 1-35 1v-2zM203 422l52 2 3-1 2 12-11 13-28 2-29-18-3-6-3-1 17-3zM375 442q23.7-2.8 31 11l-7 17-22 4-19-8-2-9 9-11 10-4zM281 460l21 9 2 10-9 11-14 2-13-9-2-6 6-13 9-4zM131 546l9 13-4-2-5-11zM89 550l-14 16 14-16z"/><path fill="#E8AC81" stroke="#E8AC81" d="M391 0v4l4-2v4l3 3 8 4-2 4 3 5 3-1-2 4h4l-2 6h4-6l-11-19-5-3-5-1-4-2-20 4V8l3-1-1-3 6 2V4l-3-1 3-1 6 2 14-4zM237 52l2 4 16-4 5 3-4 2 5 1 5 1 3 7 3 3 8 4-2 4h4l-2 4h4l-3 5-14-18-8-4v-4l-6 2-18-4-4 2v-2l5-3 1-3zM361 70l1 8 4-1-1-3 6 2 3-1-5 9-9-3 1-3-3-1 3-7z"/><path fill="#E8AC81" stroke="#E8AC81" d="M377 76l1 3-7 9-13-3 5-1 8 2 6-10zM567 112l7 4q22.7 17.1 18 63l-4 11-11 10-28 10-2-4-3 10-6 1 4 2-4 7-8 7-25 15-6 2-18 2-24-6-1 3 9 11-7-1 4-2-11-15-7 2-1-4-7 2-2-5 4-2-5-1-4 2v-2l3-1-9-3-3 1-3-3-3 1 1-3-6 2v-4l-6 2v-4l-6 2-4-2-5 1-9 15-1-5 2-9 6-3 3-3 26-8 62 20h24q25.4-3.6 37-21l29-41 8 16q11.7 4.2 9-5h2l1 3 3-31-23-39zM193 118l11 5-3-1-3 1 7 9-12-14zM219 120l25 1-25 1v-2zM223 130l-4 10v-4l-3-1 7-5zM419 136l3 7 2 9-4-1 2-4-3-11zM235 144v4l4-2-2 4-4 2-3-6 5-2zM371 192l13 1-23 7v-6h4l6-2zM347 220q2.1 30.9 22 44l31 14 1 4 3-1 1 5 4-2 20 26h4l7-2 5-8-1 3 1 5 3-1-2 12h2l1-5 1 5-2 4 3 5-6-2-6 2-19-11-2-6 2-4-26-20 1-3-4 2-9-4-1-4-3 1 1-3-4 2v-4l-4 2-2-4h-4l-15-11-6-12 2-8h-2l-1 3-1-9h4l-2-10h4l-1-5z"/><path fill="#E8AC81" stroke="#E8AC81" d="M473 260l13 5 1 5 2-4 2 4 3-1 9 15 6 2-2-4-3-3-5-7 14 18 3 1-1 3 5 3-3 5 4-2-3 5 1 3 5-3-4 6 3 7 5-2-4 11 3-1 3 11v4l-1 5-5-2 2 5-2 4 1 3h-8l-4 2-4-2-14 2-19-8q-6.2-44.3-33-70l-8-4h-4l-7-2-2-7 17-3 22 10-4-6-7-3 23-5zM97 302l3 1-8 3-3 4-3 6-6-1 17-13zM103 304l1 5q-13.7 15.3-8 50l1 3-3-3-2-22 11-33zM73 316l2 6 5-2-6 15v4l-3 11-4-10-5 11v4l2 12h-2l-5-11-1 9v4l2 4-2 6 6 20-4-2v-4l-3-5-3 1 1-3-8-2 1 3-3 13-3-27 2-9 7 2 7-32 4-5 7-9 6-4zM467 352l2 4 3-1-1 3 9 2-3 4-12-8 2 6q-10-5 0-10zM485 368l21 1-21 1v-2zM85 372l-1 3-1 19-1-19 3-3zM105 388l5 1-2 4 3 5 3-1-2 4 5 7 3-1-2 4 6 2-2 4 9 15 3-1-3 7-26-50zM457 406l18 26 9 5-7 3 1-3-3-3-16-20-2 8-1-11 1-5zM471 436q12.5 13.1 9 40l-4 1 4 1-1 6-8-6-3 5 4 11-4 3h4l-1 5-6-4-3 1-1-3-3 7 2 6-5 11-4-6-5 1 2 6-15 17-14 10-5-3 4-2-2-4h4l-2-8 3-7 2 6 1-9-2-4h2l1 3 4-10 6-4 7-10 10 8 4-18 11 6 1-3-2-17 4-1-3-5 7 5-4 2 3 5 1-4q7.5 2.1 4-15l-8-18 1-5zM191 474l45 23 4 8-4-2-11-13-34-16zM521 476l8 2 6-2v4l24 6 3-1-1 3 4-2v4l4-2 2 6 6 2 3-1 3 7 4-2 2 6 3-1v4l1 3 3-1h-6l-3-3q-24.2-27.8-75-29l3-1 8 2v-2l-2-2zM509 480l5 3-37 19-1-4 12-5-1-3 6 2 13-7-1-3 4 2v-4zM329 510l1 4-4 1 4 28h-2l-1-3-1 9 2 4h-4l-2 10 1 3-3-1 2 4-4 2 2 5-4 1 1 3q-51.4-1-85-18l3-8 3 1 2-4v-4l6-31 11 4 24-2 26 4v-2l-17-1q27.3 3.3 39-9zM415 528l1 5-20 50 1 3-3-1 2 4h-4l2 4-6 2 2 4h-4l-3 7-1-3 8-16-1-3 3 1 23-57zM229 588l22 2 4-2 7 11 5 7 3-1-1 5-5-2-13-12-16-4-8 2v-2l3-1-1-3zM193 590l31 1-31 1v-2zM381 608l1 3-2 6 1 3-3-1 2 8h-2l-1-3-2 4-1-5 7-15zM271 612l7 3h-4l3 5 3-1-2 4 6 2-2 4h4l-2 4h4l-3 9-14-30zM183 636l31 3-3-1-28-2zM397 700l10 4 3-1 5 9 5 1-2 4 1 3-14-16-8-4z"/><path fill="#B74F32" stroke="#B74F32" d="M353 10l1 4 14 2-1 4-15-4 1-6zM331 12l19 1-19 1v-2zM325 14l3 1-6 4 25 31q28 24 72 32l4-12 1 13-17 5-19-6-1 4-1-6-12-7-1-3-2 4-11-6-1-4-6-2-3-3h-2l6 17-22 6-3 4-3 1 10-20-3 1-18 10-3-7q-4.5-36.5 9-55l4-2zm1 34v18l11-2 5 1-8 13 18-5-4-8-9-7-3-5-10-5zM501 48l22 4 5-2 1 4 4-2v4l4-2 2 4 3-1 1 3 3-1-2 5 12 7 1 3 3-1-1 3 3 1-4 2-3-3q-18.6-23.4-64-20l-8 2-2-4 4 2v-4h8l8-4zM211 74l6 2 4-2 15 5-5 1-16-4-8 2v-2l4-2z"/><path fill="#B74F32" stroke="#B74F32" d="M375 84l1 6 10 5-3 1-11-4 3-8zM289 88l-1 3 8 42-2 7-30-12 8 35-6 13-10 7-12 30 4 27 7-4 2 16 5 1 4 20-2 4 5 7 3-12q17.2 23.4 63 20l25-11v-4l-2-6 3-1 55 37 4 8h-2l-1-3-5 1-1 3-1-4-31-2-5 2-6 35 13 21 6 2 37-17-2-5 14 2 3 4-1 3-2 10 5 19 6-10 1 3-6 8 4 1 2 5-7-5q-45.5 37.5-134 32v-2l13-2 3-4q13-7 9-31h-2l-1 13-1-15 4-2 3 3 9-2q-1.6 9.5 23 4l35-9-5-3-44 10-13-4-5-4-3 1 3-3 5-2 1 4 1-5v-4l-16-49-38-6-5-4-11-4-4 8-11-26-7 3 1 3-7-24-8-3 4-19-10-3 8-50-7-11-4 2-17-15 4-2-12-4-5-3-8-10-15-11-10-18 7-9 8-2 36 6 24-2 49 18 4 4 2-5-8-36 3-3zm-88 28l-9 3 43 35 3 4 20 6-6-42-5-2h-38l-1-3-3 1-4-2zm142 292l-2 4 37-3-35-1zM329 120l3 5-8 6 6-8-1-3zM469 130l-8 10-6 4 4-6 10-8zM359 148l9 11-10-8 1-3zM445 148l3 1-15 7v-2l12-6zM455 260l3 1-8 4 4 2-3 1-5-3 9-5zM431 278l12 14-12-14zM527 346l1 3-9 13 3-5 5-11z"/><path fill="#B74F32" stroke="#B74F32" d="M441 358l5 15h-2l-3-15zM46 384l4 3 13 15 4-2 1 10 6 3-1 3-12-8-1 5 21 25 9 5-8 7 28 12 1 4 16-24 8-4-6 8-7 5-11 21-3-1-2 4 4 1q-1.6 27.5 12 40l34 18 3 4 14 36 16 4 6-2 13-2-5 8-6 4-2-4-3 10 20 1-23 1-22-2-13 7-4 8 5 7 26 4 49-10-6 37 6 15 19 4 10-12 3 12 5 2 10-16 1 14 7-2 1 5-7 11-6 2q-5.5-9.5-11 3l-7 3h-4l-7-7-7-3-4 2-9-5-1-3-7-3h4l-3-3v-4l-3-3-2-12 6-10-3-1-46 2q-25.2.2-37-13l-2-4v-4l2-6-5-1-4 2h-4l-5 1 1 3-20 8 2-4 35-29 8-18-2-4-3-9 3-3-3 1-6-4-18-6-5 2-19 22-37 31q-12.9 20.1-12 54l-10 15-6 3-10 14 9 23q13.3 11.7 42 8l17-4 3-18 10 14 9-4-5 6v2l3 1-4 1-3 4-13 7 2-4-4 2-5 3-7 4-1-6-1 4-23-2-5-1-4-3-3 4-13-4-5-4-7-13 1-3-5-3 2-10 3-7v-4l5-1-4-2 4-2-1-3 4 2v-8l5-1-4-2 4-2v-4l3-3 3-7 3-7 3 1-3-3v-2l3-3-1-3 3-1v-8l11-31 3-1 3-7 5-1-1-3 6-4 6 2v-4l3 1 5-9 2 4 15-17 3-7 3-5 12-24-4-26 4-10-18-7 2-5-3-1h-4l-7-5-5-7-1 3 1 3-13-15-1-5-3-5q-13.6-18.1-10-51zM69 384l14 16 3-5h2l-3 9-16-20zM195 432l12 14-12-14zM259 436l1 3-10 8 9-11zM369 442l5 1-16 10-3 7-1-3 11-13 4-2zM341 466l1 5-4 40 2 42-8 36q10.2 13.8 6 42l-16 56 8 22-2 16q16.3 21.7 59 17l19-9-6-16h6l-2 4 6 10-1 3 7 3-1 5h-4l-6 4-2-4-3 8-7 2-4-2-6 4-10-2h-4l-10 2-14-6-3 1-1-5-2 4-2-6-2 4-7-12-6-1 1-3-3-13-10-40q18.4-25.6 14-74l-6-24 14-36-2-14 2-4-2-15q-22 12.5-63 8l-21-4-1 14q1.1-32.1-20-42l-39-15 5-1q31.9 6.1 49 27l7 13 28 4q32-2 47-21l19-27z"/><path fill="#B74F32" stroke="#B74F32" d="M267 480l6 8 7 3-3 1-11-9 1-3zM581 514l7 4 3 4 7 4 1-6 1 5-10 23-4-1 2-14-7-19zM509 524l18 2 28 22 15 2 2-7-2-12 4 2 7 13 6 4-2 4-4 2h-4l-7-2-3 6-16 2-17-9-3-3-8-12-2 4-4-8-5 3 1 3-3-1-1 3-2-4-2 6-2-4-4 6-8 4-5 2-9 8-19 8-3 4-12 6-3-1-7 3-26 4-8-2-3 1 6-15 4-1v-4l7-19 1 3-2 6 5-3 6-4 1 4 17 2 68-28zM243 530l1 7-11 19-5 3-9 11-7 3-1 3-1-6 24-19 9-21zM87 624l-7 9-3 7-1-3 11-13zM65 678l27 7-3-1-22-2-2-4z"/><path fill="#F9D8A1" stroke="#F9D8A1" d="M221 60l-12 14 12-14zM353 64l23 13-5 9-13-2 4-13-3 1-6-8zM567 108l5 7 1 5 9 5 2 4h-4l3 5 3-1-2 4h4l-2 6h2l1-3 3 9-5 33-2-4-1 5 1 3-13-5-5-13-19 23 3 5-6-2-7 15 3 5q-6-10-12 4-16.3 15.7-52 12l-64-20-27 8-2 5 1 3-5-2-2 13 8-4 26 45 30 14 4 15h-2l-1-5-3 6-7 2-9-1 2-4-17-21-4 2-2-6-5 3 2-5-44-27-7-29-2 4-1-3 14-22-5-3v4l-7-3-3-5-3-1 3-1 5 1-1 3 4 2 8-2 6 2 54-8 37-21 21-41 8 2 52-10 18 6 7-12 4-1-1-5zM197 120l4 2 16-2 35 4 4 37h-2l-1-5-1 4-20-11 1-3-4 2-32-28zM593 156l1 19h-2l1-19zM225 178l10 12-10-12z"/><path fill="#F9D8A1" stroke="#F9D8A1" d="M371 178l5 1-2 5 4 8-9 2-3-5 4-8 1-3zM229 212l1 31h-2l1-31zM537 220l5 1-17 19 13-15-1-3-3 1 3-3zM423 230l15 5-5 1-10-6zM521 240l-2 4-10 4v-2l12-6zM439 242l16 8 2-4 2 4 8-2 13 3-11 1-8-2v8l-10 2-5-8-4-3-3-7zM497 274l10 12-4-2-5-1-2-6 1-3zM103 298l5 1-6 2 6 2-3 5-2-4-7 19h2l1-3 1 3-3 9-2-8-3 33 2 16-2 4 2 8-4-2-5-11-3 21 2 4-12-10-5-9q-8-.3-3 21h-2l-3-13-1 5 2 4-6-4-2-4 6-2-2-10v-4l2-4-2-10h2l5 11 1-7-6-10 6-2 3-9 4 10 5-13-3-5 5-1 2-12-6 4-1 3-1-3 11-7 3-3 6-3-1-4-3 1 15-9zM461 410l3 5-2 4 6 2v4l3 5 5 1-1 3 4-2 5 3-3 1-3-1 2 4-10-2 3 7 3-1-2 4h4l-2 10 2 17-5 2-7-4 2 19-5-3-7-2-2 13 2 4h-2l-1-3-1 4-10-8-7 10-6 4-10 30-1-5 10-66-12-32 3 1 11 4-10-21 3-1 19 12 6 4 1-14 6 10 3-5-2-4 3-9 3 1-1-5zM211 420l25 1-25 1v-2zM271 420l19 1-19 1v-2zM65 452l12 14-12-14z"/><path fill="#F9D8A1" stroke="#F9D8A1" d="M449 508l1 5-7 11 1-3 5-13zM327 514q8-.3 3 21h-2l-1-21zM289 520l19 1-19 1v-2zM325 552l1 7-5 9-1-3 5-13zM409 742l7 1-13 7 6-8z"/></svg>