<svg xmlns="http://www.w3.org/2000/svg" width="1500" height="1885"><defs/><path fill="#F9E5C3" stroke="#F9E5C3" d="M927.5 0L940 2.5 922.5 10l5-10zM977.5 0L990 7.5 982.5 5l-5-5zM997.5 10l10 15-10-15zM837.5 20l35 5 10-5v5l-60 5v-5l15-5zM1017.5 20l2.5 17.5-10-5 7.5-12.5zM800 30l15 2.5-12.5 7.5-2.5-10zM1027.5 40l-5 10 5-10zM792.5 45l-2.5 7.5-2.5 7.5-2.5-7.5 7.5-7.5zM777.5 95l2.5 82.5h-5l2.5-82.5zM1262.5 115l17.5 2.5-17.5 2.5v-5zM602.5 125l27.5 2.5-27.5 2.5v-5zM652.5 135l5 10-5-10zM1190 135l10 2.5-25 20 15-22.5zM562.5 140l7.5 2.5-57.5 47.5v-5l50-45zM667.5 140l27.5 32.5-30-25 2.5-7.5zM637.5 145l12.5 2.5-12.5 2.5v-5zM1367.5 145l12.5 2.5-12.5-2.5zM657.5 150l10 15-10-15zM877.5 155l62.5 37.5-12.5 27.5-32.5-5-5-12.5 15-20-20-2.5-7.5-25zM1062.5 160l2.5 22.5h-5l2.5-22.5zM1397.5 175l5 10-5-10zM697.5 180l5 10-5-10zM722.5 180l2.5 27.5h-5l2.5-27.5zM732.5 180l5 10-5-10zM492.5 190l12.5 2.5-22.5 7.5v-5l10-5zM777.5 195l-5 10 5-10zM462.5 200l12.5 2.5-52.5 32.5-2.5-10 42.5-25zM752.5 200l5 10-5-10zM1062.5 200l2.5 12.5-15 10 12.5-22.5zM1157.5 200l2.5 12.5h-5l2.5-12.5zM972.5 205l7.5 12.5-10 5 12.5 27.5-17.5-27.5 7.5-17.5zM767.5 210l-5 10 5-10zM1417.5 215l2.5 12.5h-5l2.5-12.5zM1017.5 220l12.5 2.5-17.5 7.5 5-10zM1157.5 230l2.5 17.5h-5l2.5-17.5zM412.5 235l2.5 7.5-10 5 7.5-12.5zM402.5 255l2.5 32.5h-5l2.5-32.5zM992.5 255l17.5 22.5h-5L992.5 255zM1417.5 265l2.5 15 20 7.5 10 20 20 35-5 15h5l2.5-7.5 7.5 22.5-10 85h5l2.5-7.5 2.5 17.5-32.5 37.5-60 15-12.5-7.5 15-27.5-10 7.5-20 35 12.5-7.5 7.5 2.5-17.5 12.5-7.5-2.5 5 15-52.5 57.5-140 25-15-5 2.5 17.5-27.5 7.5-32.5-47.5 7.5 2.5 25 5-5-10L995 557.5l20-5-22.5-2.5-32.5 22.5 92.5 137.5 52.5 20 20 80-45 2.5 50 5-32.5 7.5-37.5-15 5-12.5-57.5-67.5L865 637.5l-10-45 35-80-25-20-7.5-7.5-10-15 27.5 10 22.5 10 7.5-2.5 7.5 7.5-2.5-7.5 2.5-7.5 2.5 10 10-2.5-10-25 17.5-32.5 12.5 50-15 2.5 17.5 2.5 187.5-52.5 62.5-112.5 15 5 145-25 35 15 25-50zm15.5 20l-8 8 10 5-2-13zm15 200l-10 15 17-12-7-3zm-558 15v8l10-5-10-3zm533 0v5l12-2-12-3zm-25 5l-10 5v5l32-7-22-3zm-45 35l-8 13 10-5-2-8zm-35 40l-5 5-8 10-17 5-5 10 42-27-7-3zm-180 25l-8 8 8 12 2-10 10-2-12-8zm130 5l-20 5v5l32-7-12-3zm-115 5v5l22-2-22-3zm25 5v5l67-2-67-3zm-70 55l-3 13 10 2-7-15zm20 0l-13 23 13 2 2 10 15-2-20-13 5-12-2-8zm77 0v10l-15 3 33 7-3 8 20 17 8 15 17-2-12-8-15-25-8-10-20-7 10-5-15-3zm-70 10v8l10-5-10-3zm123 25l-8 8 10 2-2-10zm-58 10l20 10-20-10zm68 15l12 10-12-10zm-18 10v10l30-2-30-8zm38 10l-3 13 10 7-7-20zm10 20l-3 13 10 5-7-18zm-115 5l-3 18h5l-2-18zm12 0q-11 40 45 20 11-40-45-20zm118 0l-3 13h5l-2-13zM967.5 275l12.5 2.5-12.5 2.5v-5zM1167.5 275l2.5 7.5-10 5 7.5-12.5zM957.5 280l2.5 22.5h-5l2.5-22.5zM987.5 280l12.5 7.5-7.5 2.5-5-10zM1007.5 290l22.5 12.5v10l7.5 12.5 7.5-2.5-5 10h10-15l-17.5-27.5-7.5 2.5-2.5-17.5zM1172.5 290l5 10-12.5-2.5 7.5-7.5zM487.5 295L630 305l15 97.5-12.5 2.5L495 312.5l-7.5-17.5zM962.5 310l5 10 15-10v5l-15 10-5-15zM417.5 315l27.5 32.5-25-20-2.5-12.5zM1002.5 315v15-15zM1172.5 320l-5 10 5-10zM1027.5 330l-5 10 5-10z"/><path fill="#F9E5C3" stroke="#F9E5C3" d="M1052.5 340l-2.5 7.5 2.5 12.5 5-10 2.5 7.5-5 15 5 12.5 10 2.5-15 2.5-2.5-10-2.5 10-25-7.5 7.5-12.5 2.5 10 15-17.5-5-15 7.5-7.5zM1140 340l10 2.5-10 5V340zM1122.5 350l12.5 2.5-12.5-2.5zM452.5 355l20 25-20-25zM877.5 365l17.5 12.5-7.5-2.5-10-10zM827.5 370l5 10-7.5-2.5-2.5 12.5-2.5-12.5 7.5-7.5zM1092.5 370l12.5 2.5-27.5 12.5 5-10 10-5zM1482.5 380l7.5 32.5-7.5 27.5v-60zM487.5 385l37.5 32.5-17.5-12.5-20-20zM902.5 385l15 20-15-20zM877.5 395v15-15zM897.5 415l5 10-5-10zM532.5 420l57.5 52.5-27.5-22.5-32.5-20 2.5-10zM912.5 435l2.5 12.5h-5l2.5-12.5zM577.5 500l2.5 17.5h-5l2.5-17.5zM572.5 525l2.5 82.5h-5l2.5-82.5zM592.5 605l2.5 32.5h-5l-2.5-22.5-12.5 7.5 7.5-7.5 10-10zM1162.5 640l5 10-5-10zM587.5 645l2.5 7.5-2.5 7.5 17.5 10-25-5 7.5-20zM1157.5 655l12.5 7.5-10 5 15 2.5-2.5 10-10-5 10 15 20-10 7.5-2.5 2.5-12.5 35 15v-10l35 45 2.5-7.5-2.5-7.5 17.5 22.5h-10l7.5 12.5 12.5 2.5 10 25h-5l-2.5-7.5-2.5 12.5 7.5 12.5 5-10 7.5 22.5-5 30 5 30-17.5 32.5-2.5-7.5 10-20-5-10 5-45h-5l-2.5 22.5-20-50-2.5 22.5 15 5 5 40-5 10 5 15-7.5 17.5-5-10-40 15-15-5-42.5-22.5-10-62.5-10-17.5-20-40 5-12.5-12.5 5-35-40-30-20-12.5 5 15-17.5 7.5 2.5 12.5 2.5-2.5 7.5 17.5-10 2.5 10 10-5 22.5 17.5-5 10 5 10-2.5 7.5 12.5-7.5-5-10h5l5 10-2.5 7.5 10-5 2.5 12.5-10 7.5-2.5-10-7.5 30 12.5 5 7.5-2.5 12.5 7.5v-5l-7.5-20 15-7.5-12.5-27.5-7.5 2.5 2.5-7.5-42.5-32.5 12.5-2.5v10l12.5-7.5-2.5-7.5zm35.5 160l-8 25 15-7-7-18zm37 40v13l10 5-10-18zM607.5 680l2.5 12.5h-5l2.5-12.5zM637.5 710l7.5 7.5-10 5 2.5-12.5zM627.5 725l12.5 7.5-7.5 2.5-5-10zM247.5 745l22.5 17.5-27.5 72.5-5-15-2.5 17.5 7.5 52.5 10-5v5q-29.2-1.7-17.5 72.5l5 10-10-5-17.5-37.5-7.5 37.5 10 30-35-30-12.5-22.5-10 55-40-45-10 55-7.5-50 10-42.5h-5l-2.5 22.5-2.5-22.5 12.5-22.5 17.5 12.5-10 15 15 7.5 10-87.5h-5l-7.5 17.5-2.5-7.5 5-10-2.5-7.5 7.5 2.5 5-10-2.5-7.5 17.5 2.5-2.5-7.5-7.5 2.5 17.5-7.5 7.5 17.5 10-5-5-15 5-12.5-12.5 5-2.5-10 12.5-5 20 10 10-15-10 5 10-15 35-25zM198 795l-8 13 10-5-2-8zm-85 105l-3 13 10 5-7-18zM687.5 750l5 10-7.5 17.5h-15 10l7.5-27.5zM702.5 760l12.5 7.5-7.5 2.5-5-10zM747.5 780l12.5 2.5-12.5 2.5v-5zM767.5 785l32.5 2.5-32.5 2.5v-5zM1030 785l10 10-10-10zM807.5 790l7.5 12.5-7.5-2.5-7.5-2.5 7.5-7.5zM1047.5 790l5 10-5-10zM1322.5 800l2.5 17.5h-5l2.5-17.5zM822.5 820l7.5 17.5h-5l-2.5-17.5zM1057.5 855l32.5 17.5-7.5-2.5-27.5-5 2.5-10zM1322.5 860l2.5 12.5h-5l2.5-12.5z"/><path fill="#F9E5C3" stroke="#F9E5C3" d="M127.5 875l2.5 17.5h-5l2.5-17.5zM842.5 880l2.5 12.5h-5l2.5-12.5zM1097.5 880l12.5 17.5h-5l-7.5-17.5zM1147.5 880l5 10-5-10zM1312.5 890l-5 10 5-10zM842.5 900l7.5 15-10-2.5 2.5-12.5zM1162.5 900l32.5 17.5-7.5 2.5-25-20zM257.5 905l7.5 37.5h-5l-2.5-37.5zM1297.5 905l-5 10 5-10zM1117.5 915l2.5 12.5h-5l2.5-12.5zM832.5 920l-7.5 12.5-2.5 7.5-2.5-15 12.5-5zM1202.5 920l12.5 2.5-12.5 2.5v-5zM1262.5 920l12.5 2.5-12.5 2.5v-5zM1122.5 935l2.5 12.5-10 15 5 10-10-5 12.5-32.5zM267.5 950l2.5 10 10 2.5v10l50 90-10-5L267.5 950zM817.5 950l2.5 12.5h-5l2.5-12.5zM1122.5 980l17.5 22.5-10-5-7.5-17.5zM822.5 995l2.5 17.5h-5l2.5-17.5zM1142.5 1010l17.5 27.5v10l2.5 7.5 27.5 7.5v10l-5 10 7.5 2.5h10l12.5 7.5-7.5 2.5-12.5-7.5 5 10-12.5 17.5 12.5 7.5-5 45h5l2.5-12.5 2.5 42.5h-5l-2.5-7.5-12.5 7.5 15 7.5-2.5 10-17.5-12.5-10 7.5 12.5-15-5-10-12.5 7.5 7.5 37.5 5-10 2.5 7.5-5 15 2.5 7.5-15-5-7.5 2.5 2.5-7.5-7.5 27.5-12.5 32.5-10-15-7.5 12.5-22.5 32.5-60 45-2.5-12.5 35-185-30-85 7.5-2.5 20 15 2.5-22.5-25-35 7.5 2.5 65 40 2.5-32.5-2.5-7.5 20 25 7.5-37.5-2.5-7.5 7.5-2.5-7.5-17.5zm32.5 85v8h15l-15-8zm18 25l-3 13h5l-2-13zM807.5 1020l7.5 2.5-22.5 12.5v-5l15-10zM292.5 1025l7.5 12.5h-5l-2.5-12.5zM757.5 1040l12.5 2.5-22.5 7.5v-5l10-5zM497.5 1050l132.5 2.5-132.5 2.5v-5zM657.5 1050l72.5 2.5-72.5 2.5v-5zM437.5 1055l17.5 2.5-57.5 12.5v-5l40-10zM462.5 1055l17.5 2.5-17.5 2.5v-5zM330 1070l10 2.5v10l-2.5 7.5-7.5-20zM377.5 1070l12.5 2.5-22.5 7.5v-5l10-5zM132.5 1080l7.5 12.5-10-5 2.5-7.5zM147.5 1110l45 50 12.5 7.5-7.5 2.5-37.5-30-12.5-25-7.5 2.5 7.5-7.5zM212.5 1170l52.5 20-2.5 15-2.5-10-47.5-25zM1292.5 1190l12.5 2.5-12.5 2.5v-5zM1337.5 1190l17.5 2.5-17.5 2.5v-5zM1382.5 1200l17.5 7.5-7.5 2.5-10-10zM1242.5 1210l7.5 2.5-27.5 12.5v-5l20-10zM1267.5 1210l7.5 2.5-17.5 7.5v-5l10-5zM1417.5 1215l22.5 5 7.5 10 40 45-70-60zM257.5 1220l2.5 47.5h-5l2.5-47.5zM1237.5 1225l12.5 2.5-32.5 12.5v-5l20-10z"/><path fill="#F9E5C3" stroke="#F9E5C3" d="M1187.5 1230l17.5 2.5-22.5 7.5 5-10zM262.5 1280l2.5 17.5h-5l2.5-17.5zM817.5 1280l7.5 67.5-32.5 97.5-20-5h-10l-42.5 2.5 35 5-32.5 2.5-97.5-27.5 15-5-27.5-7.5v5l7.5 2.5-20 2.5 7.5-10v-5l-10-5-2.5 10-17.5 5-10-5-22.5 17.5 32.5-22.5 12.5-2.5-10-5 40-95 2.5-12.5 135 10 60-20zM643 1420v5l12-2-12-3zm15 5v5l12-2-12-3zm15 5v5l22-2-22-3zm25 5v5l22-2-22-3zM1492.5 1280l7.5 12.5h-5l-2.5-12.5zM1497.5 1325l-5 10 5-10zM240 1330l10 2.5-37.5 47.5 17.5-22.5 10-27.5zM1287.5 1350l27.5 17.5-27.5-17.5zM1262.5 1360l-5 10-20 10 5-10 20-10zM1322.5 1375l17.5 12.5-7.5 2.5-12.5-2.5 2.5-12.5zM1472.5 1375v15-15zM202.5 1385l-30 35-30 20 10-15 50-40zM1217.5 1385l-10 15-7.5-2.5 17.5-12.5zM1192.5 1400l-5 10 5-10zM1377.5 1405l32.5 2.5-32.5 2.5v-5zM1157.5 1420l-5 10-25 10v-5l30-15zM132.5 1440l-30 35 30-35zM527.5 1440l-5 10 5-10zM1117.5 1440l-5 10-7.5-2.5 12.5-7.5zM762.5 1450l32.5 2.5-32.5 2.5v-5zM1092.5 1450l7.5 2.5-17.5 7.5v-5l10-5zM497.5 1460l2.5 10-17.5 5v-5l15-10zM1012.5 1460l17.5 2.5-17.5 2.5v-5zM1052.5 1460l17.5 2.5-17.5 2.5v-5zM582.5 1465l12.5 2.5-12.5 2.5v-5zM637.5 1470l12.5 7.5-7.5 2.5-5-10zM987.5 1475l-2.5 7.5-22.5 47.5-2.5-7.5 27.5-47.5zM97.5 1480l2.5 7.5-7.5 12.5-2.5-7.5 7.5-12.5zM657.5 1485l12.5 17.5-15-10 2.5-7.5zM322.5 1515l2.5 12.5-10-5 7.5-7.5zM677.5 1515l10 15-10-15zM807.5 1515l2.5 57.5h-5l2.5-57.5zM82.5 1525l2.5 12.5h-5l2.5-12.5zM297.5 1530l2.5 10-15-2.5 12.5-7.5zM322.5 1535l2.5 12.5h-5l2.5-12.5zM692.5 1535l5 10-5-10zM957.5 1535l2.5 12.5-7.5 12.5-2.5-7.5 7.5-17.5zM272.5 1540l-5 10-7.5-2.5 12.5-7.5zM702.5 1550l5 10-5-10zM227.5 1560l2.5 10-10-2.5 7.5-7.5zM337.5 1565l7.5 12.5h-5l-2.5-12.5zM947.5 1565l2.5 12.5-7.5 17.5-2.5-12.5 7.5-17.5zM67.5 1575l2.5 7.5-7.5 12.5-2.5-7.5 7.5-12.5zM387.5 1585l12.5 2.5-12.5 2.5v-5zM427.5 1590l42.5 2.5-42.5 2.5v-5zM722.5 1590l2.5 17.5h-5l2.5-17.5zM527.5 1595l2.5 47.5h-5l2.5-47.5zM57.5 1600l2.5 7.5-17.5 32.5-2.5-7.5 17.5-32.5zM937.5 1600l2.5 17.5-7.5 22.5-2.5-17.5 7.5-22.5zM187.5 1620l2.5 12.5-10 5 7.5-17.5zM722.5 1625l2.5 22.5h-5l2.5-22.5zM37.5 1645l-2.5 7.5-2.5 7.5-2.5-7.5 7.5-7.5zM177.5 1645l2.5 12.5h-5l2.5-12.5zM787.5 1650l2.5 7.5-12.5 22.5-2.5-7.5 12.5-22.5zM927.5 1650l12.5 82.5-10-5-2.5-77.5zM527.5 1655l7.5 7.5 30 25-7.5 2.5-17.5-10-12.5-25zM27.5 1665l-2.5 7.5-2.5 7.5-2.5-7.5 7.5-7.5zM17.5 1685l-2.5 7.5-2.5 7.5-2.5-7.5 7.5-7.5zM167.5 1685l2.5 10 10 2.5-7.5 2.5-5-15zM772.5 1685l2.5 12.5h-5l2.5-12.5zM572.5 1690l17.5 7.5-12.5 2.5-5-10zM187.5 1695l27.5 2.5-27.5 2.5v-5zM697.5 1695l-10 15 10-15zM2.5 1700l5 10-5-10zM655 1710l10 2.5-10 5v-7.5zM772.5 1710l2.5 17.5h-5l2.5-17.5zM237.5 1715l22.5 67.5h-5l-17.5-67.5zM997.5 1740l42.5 20 10 17.5-32.5-27.5-20-10zM782.5 1750l5 10-5-10zM1002.5 1750l5 10-5-10zM2.5 1765l7.5 12.5-10 2.5 2.5-15zM792.5 1770l2.5 17.5h-5l2.5-17.5zM1057.5 1780l2.5 12.5-2.5 7.5-7.5-12.5 7.5-7.5zM12.5 1785l47.5 32.5-7.5 2.5-40-35zM252.5 1790l-5 10 5-10zM222.5 1800l17.5 2.5-20 2.5-2.5 10-2.5-7.5 7.5-7.5zM207.5 1815l-10 15-12.5-2.5 22.5-12.5zM67.5 1820l47.5 7.5-32.5 2.5-15-10zM137.5 1830l42.5 2.5-42.5 2.5v-5zM802.5 1830l22.5 32.5h-5l-17.5-32.5zM1057.5 1845l-5 10-30 15-17.5 2.5 52.5-27.5zM832.5 1860l32.5 17.5-12.5 2.5-20-20zM992.5 1875l7.5 2.5-22.5 7.5v-5l15-5zM872.5 1880l12.5 2.5-12.5 2.5v-5z"/><path fill="#FEFEFE" stroke="#FEFEFE" d="M0 0l925 2.5L842.5 25h-10L800 30l-25 147.5 5 15-17.5 22.5-30-35-12.5 32.5h-5L667.5 140l-15-5-50-10L420 225l-10 17.5-10 45 72.5 92.5 57.5 40 7.5 10 52.5 47.5-20 130 7.5 17.5 12.5-7.5-10 47.5 25 5 27.5 65 17.5-15 27.5 65 7.5-25 120 32.5-2.5 7.5 12.5 7.5 30 90-5 15-7.5 7.5-12.5 5-5 37.5 5 57.5-167.5 35-10-5-10 5-135-5-40 10-20-5-95 35-7.5-12.5 2.5-7.5-7.5-7.5-55-95 2.5-7.5-7.5-7.5-15-67.5-12.5 5-2.5-52.5 30-92.5-70 37.5-12.5 7.5h-10L160 807.5 125 900l-12.5-5L100 997.5l60 142.5 100 55-5 72.5 5 35-10 27.5-10 12.5-30 42.5-110 87.5L2.5 1715l-2.5-7.5V0zM987.5 0H1500v1280l-10-7.5-50-42.5-12.5-10-135-30-110 45-7.5-22.5 7.5-12.5 17.5 12.5 5-55-20-55 17.5-7.5 12.5-2.5-25-12.5-75-117.5 10-25-42.5-72.5-27.5-12.5-20-55 17.5 2.5 15 10 40 15 20-5v5l-7.5 2.5 10 2.5 37.5 80 105 15 42.5-32.5 10-90-52.5-102.5-15-10-102.5-50-5-12.5 12.5-2.5 90 5 102.5-72.5 12.5-27.5 97.5-42.5 25-75-40-112.5-10-12.5h-10l2.5-7.5-12.5-62.5-30-57.5-127.5-45-72.5 20-35 112.5 30 65-45 27.5-7.5 10-72.5 35-90-152.5 2.5-12.5 7.5-2.5-2.5-7.5 37.5 12.5-2.5 7.5 52.5-17.5L1017.5 20l-5 10-15-20-10-10z"/><path fill="#FEFEFE" stroke="#FEFEFE" d="M960 280l60 27.5 30 72.5-15-22.5-10-22.5-10-7.5-37.5-17.5-12.5 7.5-5-37.5z"/><path fill="#FEFEFE" stroke="#FEFEFE" d="M985 320l20 12.5-12.5 7.5-7.5-20zM837.5 360l62.5 20 35 62.5h-10l-7.5 17.5-2.5-25-10-12.5-60-27.5-5 37.5 5 22.5 10 7.5 12.5 17.5-27.5-17.5-20-70 17.5-32.5z"/><path fill="#FEFEFE" stroke="#FEFEFE" d="M865 405l20 5-12.5 20-7.5-25zM890 470l10 10-10-10zM877.5 485l12.5 2.5-12.5 2.5v-5zM1497.5 1330l2.5 555-510-2.5 32.5-22.5h10l27.5-12.5 5-40-25-47.5-57.5-25-20 5-15-5-12.5-7.5-5-85 65-182.5 72.5 5 212.5-105 2.5-10 30 20 7.5 7.5 87.5 32.5 45-20 7.5 2.5 7.5-7.5 30-55zM567.5 1410l10 5 22.5-5 22.5 10 172.5 35 10 142.5-35 130 52.5 137.5 20 10 27.5 7.5L0 1885l10-105 22.5 30 145 25 42.5-20 17.5-10 17.5-12.5 5-40-37.5-52.5-35-5h-10l-7.5-17.5 47.5-107.5 20-10 62.5-20 7.5-10 12.5-5 22.5 55h10l172.5 15 5 57.5 10 20 7.5 7.5 52.5 20 2.5 10 20 10 30-5 12.5-2.5 7.5-12.5 20 5 17.5-25 10-2.5v-10l5-75-67.5-107.5-15-10-60-10-90 10v-5l15-10 32.5-20 7.5-10 20-20z"/><path fill="#C96D46" stroke="#C96D46" d="M942.5 0l67.5 27.5 55 170-17.5 27.5-10-5h-10l-55-15-7.5 27.5 25 17.5 70 122.5h-5l-47.5-82.5-40-15-12.5 5 12.5 45 20-15 27.5 15 20 42.5-10 15 25 7.5 2.5-10 2.5 10 130-77.5-30-95 47.5-82.5 100-15 92.5 52.5 25 90-27.5 52.5-90-15-100 25-22.5 12.5-52.5 102.5-195 45v-5l12.5-17.5-57.5-92.5-50-10-17.5 62.5 57.5 82.5 10 5 2.5-10 32.5-15v5L885 517.5l-30 85 47.5 72.5 142.5 92.5 25 35-7.5-2.5-32.5-15 25 80 40 10 25 72.5-10 20 40 60-10 5v10l-2.5 32.5-15-20-5 35-65-40 2.5 7.5 15 45-7.5-2.5-20-10 2.5 7.5 25 120-35 155 12.5-7.5 57.5-42.5 15-37.5 15 7.5 2.5 7.5 12.5-60 27.5 10-2.5-7.5-10-50 12.5-7.5 15 10 7.5-2.5-7.5 12.5-22.5-10 10 45 152.5-50 157.5 87.5 10 45-10 17.5-10 17.5-22.5 32.5-85 15-90-55-250 115-37.5-10q-68 95.9-70 262.5l12.5 17.5 112.5 47.5 15 45-12.5 22.5q-52.1 47.9-165 35l-82.5-47.5-35-135 40-185-15-67.5-200-40 2.5-10 170 45h10l22.5-7.5 25-157.5-157.5 20-45-10-2.5 12.5-40 95 10 5-7.5 2.5-10-5-92.5 72.5 47.5 7.5 90-15 37.5 22.5 70 135-20 72.5-27.5 5-7.5-2.5-7.5 12.5-30 10-97.5-57.5-5-67.5-200-30-10-32.5 5-15-12.5 7.5-112.5 62.5-35 105 70 20 20 75-40 20-7.5 7.5-90 15L10 1782.5l-10-60L137.5 1440l97.5-82.5 30-75-5-75 5-17.5-105-62.5-50-155 7.5-17.5 40 45 10-55 40 50 2.5-22.5-5-30 7.5-12.5 25 45 2.5-7.5-5-67.5 20-10 80 200q152.7-58.2 392.5-35l97.5-42.5-5-70 22.5-27.5 7.5-12.5L810 790l-122.5-40-10 30-32.5-70-10 2.5 2.5 17.5-17.5-12.5-15-57.5-20-2.5 10-50-12.5 7.5-7.5-92.5 15-50L445 355l-40-102.5 10-17.5 177.5-105h45l57.5 47.5 22.5 42.5 10-40 22.5 17.5 12.5 22.5L795 40 942.5 0zM638 145v5l12-2-12-3zm242 15l5 20 20 3-15 20 5 12 33 5 12-27-60-33zM488 295l7 18 138 92 12-2-15-98-142-10zm497 25l8 20 12-15-20-5zm253 905v5l12-2-12-3zM1422.5 285l12.5 5 10 17.5-22.5-22.5zM1447.5 315l5 10-5-10zM1457.5 330l17.5 37.5h-5l-12.5-37.5z"/><path fill="#C96D46" stroke="#C96D46" d="M1477.5 375l2.5 72.5-37.5 52.5-82.5 32.5-52.5 67.5-130 25-37.5-10 20 35 115 57.5 50 150-20 47.5-87.5 20-62.5-32.5-25-77.5-55-7.5 7.5 2.5 42.5-17.5-20-62.5-95-62.5-47.5-92.5-7.5 2.5 57.5-27.5v5l-17.5 2.5 137.5 52.5h10l100 10 62.5-25 7.5-10 27.5-22.5 35-65-2.5-7.5 7.5 2.5 7.5-7.5 12.5-7.5-25 35 7.5 2.5 77.5-37.5 17.5-102.5zM1098 600l2 23 55 27-25-40-32-10zm-15 60l-18 20 13-5 15 10 7-17-17-8zm55 0l12 3-12-3zm-33 5l10 10-10-10zm98 0l-3 13-7 2v5l12-10 15-2-17-8zm-80 5l-8 8 3 12 12-17-7-3zm40 0l5 5 7 3-12-8zm-65 5l-3 13 13 7 7 3-7-8 2-7-12-8zm32 0l-5 20 10-10 10-2-15-8zm93 0l-13 8 13 7 7 10 13-5 17 25-10 3 18 12 12 8-2 12-35-10v-5l10 5 17-2-22-8-8-15-40 10 20-10 5-22-32-8-23 3 8 2 22 13-12 27-8 20 15 8-7-3-13-7-7 2-13-5 15 50 10-17h5l-5 20 3 37 10-25 7 18-15 7 5 23 43 22 15 5 40-15 2 8h5l-5-15 3-8 2 8h5l-5-15 5-10-5-40-15-5 5-30 3-13 17 33-5 10 3 27 2-22h5l-5 50h15l-40-130-57-48zm-75 10v25l2-7v-10l-2-8zm-20 15l-8 8 18 7-3 8 8 12 12-5 3 10 2-17-30-13-2-10zm60 0l-3 8 10 5-7-13zm-25 15l2 15 10-7-12-8zm122 60v8l10 5-10-13zm28 80l-13 23 3 7 12-17-2-13zM852.5 395l42.5 17.5 20 65-22.5 12.5-37.5-27.5-15-50 12.5-17.5zm15.5 10l-8 8 13 17 17-7-5-10-17-8zm20 30l5 10-5-10zm10 30l-8 15 15-2-7-13zM1347.5 520l-5 10 5-10zM242.5 755l7.5 2.5-50 40-22.5 32.5-2.5-20-15 7.5L135 930l-22.5-15-2.5 45-10-17.5 12.5-42.5 10 20 7.5-12.5-5-10 42.5-97.5 17.5-5-5 17.5 10-5 17.5-27.5 35-25zM257.5 760l2.5 7.5-7.5 12.5-2.5-7.5 7.5-12.5z"/><path fill="#C96D46" stroke="#C96D46" d="M1195 780q56.3-20 45 20-56.2 20-45-20zM237.5 820l2.5 17.5h-5l2.5-17.5zM1282.5 830l7.5 12.5-10-5 2.5-7.5zM1202.5 840l-2.5 7.5-2.5 7.5-2.5-7.5 7.5-7.5zM1230 855l10 17.5-10-5V855zM1152.5 1035l35 45 17.5 12.5-10 2.5-7.5-10-35-50zM1175 1095l10 12.5 2.5 7.5-12.5-20zM1192.5 1120l2.5 12.5h-5l2.5-12.5zM1197.5 1140l2.5 27.5h-5l2.5-27.5z"/></svg>