<svg xmlns="http://www.w3.org/2000/svg" width="600" height="754"><defs/><path fill="#F6CD99" stroke="#F6CD99" d="M391 0l5 3-3-1-2-2zM379 2l24 12 5 1-4 0 5 11 3-1-2 6 1 3-14-22-6-4-6-2-8 2-4-2-10 4V8l16-6zM399 4l4 6-4-6zM335 10l9 1-9 1 0-2zM321 14l-4 6 4-6zM415 32l1 3-3 5-1-3 3-5zM311 42l1 27-2 0 1-27zM241 50l9 1-9 1 0-2zM241 54l20 4 3-1 13 17 3-1-2 4 2 4-4-2-4-9-8-2-5-4 0-4-12-2-4 2-8-2-4 2 0-2 10-4zM227 56l-4 6-14 12 12-14 6-4zM477 56l-6 8 6-8zM269 60l6 8-6-8zM351 62l25 15-5 11-13-2-2-5 6-8-10-4-1-7zM425 66l1 17-2 0 1-17zM557 68l2 4-2-4zM291 72l13 11 1 3 3-1-6 0-9-11-2-2zM561 74l5 9-2 0-3-9zM199 76l5 1-5 1 0-2zM289 76l1 7-2 0 1-7zM388 82l4 1-4 2 0-3zM463 82l1 13-2 0 1-13zM285 84l2 4-2-4zM423 86l-2 4-13-1 15-3zM173 88l-9 11-1 3-1-3 11-11zM567 88l1 5-2 0 1-5zM391 96l8 10-8-10zM161 104l3 15-2 0-1-15zM567 104l25 49 2 6-1 15-2-4-1 7 2 6-13 17-3-1-3 3-4 2-6-2 0 4-10 2-4-6-3 7 4 0-8 4 2 4-6 4 2 5-6 1-9 13-18 8-6-2 0 2 3 1-35 3-8-2-2 4 9 5-13 1-15-11-4-8 1-3-44-16-7 5q4.8 39.2 33 55l25 13 8 32-19 1-11-9-17-25-55-33-8-26 14-30-6-4 1-3-9-5 3-1 4 0 3 1-4 2 5 3 3-1-1 3 3-3 6-2 1-3 3 1-2-6 2 0 1 3 2-12 3 1 1-3 1 3-2 8 2 0 1-5 1 10q55.7 4.1 80-25l19-39 6 2 60-10 14 6 10-22zM443 240l4 4 5-1-9-3zm10 4l5 1-5-1zm20 4l0 2 7-1-7-1zm10 0l0 2 9-1-9-1zm-40 76l0 2 5-1-5-1zM385 110l7 1-9 3 2-4zM397 112l6 4 7 3 3 7 5 3-6 0-11-13-4-4zM194 118l47 4 4 0q12.3-3.7 7 11l6 28-5 1-59-41 0-3zM385 124l3 7-2 0-1-7zM475 124l-2 4 2-4zM167 126l4 6-4-6zM401 126l0 6zM467 130l-2 4 2-4zM419 132l-2 4 2-4zM173 134l12 14-12-14zM421 136l-2 4 2-4zM459 136l-2 4 2-4z"/><path fill="#F6CD99" stroke="#F6CD99" d="M413 142l1 10 10-10-1 12-3-1-1 3-5-1-1-3-3 1 3-11zM355 148l2 4-2-4zM441 148l-2 4-3-1 5-3zM193 152l2 4-2-4zM431 152l3 1-7 3 0-2 4-2zM363 156l4 6-4-6zM201 158l4 6-4-6zM349 158l7 5-6 0 1-3-2-2zM369 164l2 4-2-4zM211 166l6 8-6-8zM221 174l14 16-14-16zM337 186l2 4-2-4zM231 202l1 7-2 0 1-7zM229 214l1 27-2 0 1-27zM237 242l-4 6-3-1 7-5zM237 248l1 7-2 0 1-7zM235 258l1 3-1 3 5 1-5 1-1-5 1-3zM473 260l3 1-4 2 7 1 3-1-1 3 6-2 0 2-3 1 5 1 1 3 9 5 3 7 7 3-2 4 6 2-2 4 4 0-2 4 4 0-2 4 4 0-2 6 2 0 1-3 1 3-2 6 2 0 1-3 1 3-2 10 2 0 1-5 1 7-2 14 2 4-2 0-1-3-6 10-8 4-4-2-12 2-23-13q-6.1-43.9-33-67l-12-6-5-1 3-5 12-2 23 10 3 6 3-4-7-4-11-7 13-3 4 0 6-2zM243 268l1 7-2 0 1-7zM254 284l4 1-3 5-1-6zM103 298l5 5q-15.2 17.8-12 54l-2 6 2 26-4-2-7-13-3 7 2 6 2 12-14-12-5-9-3 21 1 3-16-18-3 5-3 15-3-35 2-9 7 4 2-14 2 6 1-9-2-4 5-9 3-1-1-3 3 1-2-4 13-11 2 6 3-1 13-17 12-6zm-32 26l3 6-3-6zm-18 42l-5 3 6 0-1-3zM279 302l13 7-3 1-10-8zM273 304l1 7-2 0 1-7zM267 306l2 4-2-4zM301 312l5 1-5 1 0-2zM309 314l13 1-13 1 0-2zM412 314l4 1-4 2 0-3zM423 342l1 4 8 1-7 1-2-6zM435 348l9 11-2 0-7-11zM527 352l-1 3-9 11-4 2 2-4 9-7 3-5zM99 354l3 3-3-3zM461 354l2 4-2-4zM101 360l7 23-2 0-5-23zM339 360l1 5-4 2 3-7zM467 360l2 4-2-4zM445 362l3 9-2 0-1-9zM333 368l-2 4 2-4zM483 368l7 1-7 1 0-2zM503 368l5 1-5 1 0-2zM445 384l3 5-4-2 1-3zM105 388l16 26 3-1-2 4 10 20-4-2-23-47zM449 392l2 4-2-4zM113 394l3 5-2 0-1-5zM329 396l1 5-2 0 1-5zM453 398l2 4-2-4zM117 402l2 4-2-4zM459 408l5 7-1 3 5 3 11 13 5 3-4 0-7 3 0 2 3 1-1 3 3 3 2 8-2 7 4 13-2 7-10-4-2 9 4 0 5 5-6-2-1 3 2 4-5-3-4 2-2-4-6 24-4-6-18 24-20 14 1-3 14-76-12-38 5 3 6 4 1-7-10-16 3 1 27 14-2-14 4 3 5 7 4-22zM317 412l3 1-5 3 2-4zM279 420l13 1-13 1 0-2zM187 422l7 1-7 1 0-2zM169 424l7 1-7 1 0-2zM161 426l5 1-5 1 0-2zM153 428l5 1-9 3 0-2 4-2zM143 432l3 1-9 5-2-4 4 0 4-2zM61 446l2 4-2-4zM65 452l8 10-8-10zM79 464l2 4-2-4zM191 474l5 1-5 1 0-2zM105 476l1 7-2 0 1-7zM535 476l5 1-5 1 0-2zM205 478l31 19 4 8-4-2-4-9-27-16zM519 480l21 1-21 1 0-2zM511 482l-2 4-32 16-1-4 12-5-4-2 3-1 6 2 18-10zM543 482l11 3-5 1-6-4z"/><path fill="#F6CD99" stroke="#F6CD99" d="M493 486l3 1-5 3 2-4zM557 486l17 9-3 1-14-10zM571 488l2 4-2-4zM103 490l1 13-2 0 1-13zM577 492l3 3 7 11 3-1-7-9 12 14-6-2-13-11 1-5zM329 510l1 31-12 41-36-5 1-3-10 2-9-3 4-2-5-1-6 2-5-3 1-3-8 2-13-7q16.1-14.5 14-45l47 4 36-10zm-20 68l0 2 7-1-7-1zM599 530l-6 8 6-8zM95 540l-6 8 6-8zM511 540l-2 4 2-4zM519 540l2 4-2-4zM409 546l1 3-4 2 3-5zM525 546l11 9-9-7-2-2zM497 548l-2 4 2-4zM83 554l-4 6-1-4 5-2zM407 554l-1 3-10 26 3-1 5 1-7 3-5-1 15-31zM539 556l2 4-2-4zM75 560l-6 8 6-8zM229 560l-8 10 8-10zM555 562l7 1-7 1 0-2zM65 568l-2 4 2-4zM59 572l-2 4 2-4zM213 574l-4 6 4-6zM53 576l-10 12 10-12zM205 580l-2 4 2-4zM199 584l-2 4 2-4zM407 584l19 1-19 1 0-2zM233 586l17 1-17 1 0-2zM225 588l5 1-7 3 2-4zM255 588l4 8 9 5-6-2 2 4-9-7-21-5 15-1 6 2 0-4zM201 590l19 1-19 1 0-2zM389 592l-1 3-5 11-1-3 7-11zM393 592l1 3-4 2 3-5zM323 604l1 7-2 0 1-7zM387 604l1 3-3 5-1-3 3-5zM129 606l1 13-2 0-3-9-3 1 7-5zM265 606l4 2 3-1-5 1-2-2zM117 612l-2 4-3-1 5-3zM275 612l2 4-5-1 3-3zM379 612l1 3-3 7-1-5 3-5zM31 620l1 3-3 5-1-3 3-5zM277 620l3 5-4-2 1-3zM323 620l1 11-2 0 1-11zM131 622l4 6-4-6zM379 624l1 5-2 0 1-5zM281 628l5 1-2 6 2 4-2 0-3-11zM25 636l1 3-3 5-1-3 3-5zM177 636l15 1-15 1 0-2zM79 638l-1 3-1-3 3-3zM289 638l1 19-2 0 1-19zM375 640l1 5-2 0 1-5zM373 648l1 5-2 0 1-5zM371 658l1 13-2 0 1-13zM15 660l-2 4 2-4zM215 666l11 9-3-1-8-8zM67 672l3 7-4-2 1-5zM309 676l1 13-2 0 1-13zM77 678l7 1-7 1 0-2zM233 678l5 1-5 1 0-2zM371 678l1 9-2 0 1-9zM89 680l6 8-6-8zM265 682l-2 4 2-4zM97 690l3 5-2 0-1-5zM373 690l2 4-2-4zM397 696l9 3-6-2zM313 698l3 5-4-2 1-3zM397 700l17 11-9-7-8-4zM409 700l7 4 2 5-9-9zM103 704l1 9-4 2 3-11zM5 714l11 9-3 1-8-10zM89 720l5 1-13 9 8-10zM425 722l1 11-2 0 1-11zM29 728l5 1-5 1 0-2zM37 730l11 1-11 1 0-2zM323 736l2 4-2-4zM423 736l1 4-5 2 4-6zM409 742l7 1-7 1 0-2zM405 746l-2 4-6 2 0-2 8-4z"/><path fill="#FAFBF9" stroke="#FAFBF9" d="M288 0l8 20 11 4 5 3-2-4 5-3-1 3-3 9-6-4 1 3-1 3-13-2-4-32zM304 0l8 8-8-8z"/><path fill="#FAFBF9" stroke="#FAFBF9" d="M320 0l7 2 24-2 8 2 12-2 0 2-14 6-6 2-3-1 4-2-1-5-25 4-4-4 3 6 18-2-2 4-32 8 0-2 11-7V0zM395 0l8 2 7-1-4 6 3 5 3-12 4 1-4 6 4 0-4 6 0 4 4 14-2 0-10-20 1-3-10-8zM224 32l6 4-6-4zM268 32q13.6-4.3 8 12l-12-4 4-8zM423 32l4 0 5 3-6 13 4 7 2 4-4 0 4 16-2 6 3 7 13-12-2 8 4 4-16 8-3-6-7 2-1 4-7-2-2 14 4 3 0 4-4 6 3 5-6-10-5-3 2-5 4-5-5-3 1 3-3 7-7-17 4 0-1-5-5 1-6 7-2-5 5-7 12 6 4-2 14 2 5-23-8-26 0-4 1-3 4 6 1-5-1-3zm-22 62l-3 6 6-1-3-5zm-8 22l2 2 0 4 7-3-9-3zM480 32l14 4-14-4zM513 32l15 4-15 2-9-3 9-3zM552 32l12 4-12-4zM311 34l1 8-4-3 3-5z"/><path fill="#FAFBF9" stroke="#FAFBF9" d="M233 40l11 4 4-4q-2.7 11.6 19 8l4 0 5 3-2 5 8 5 2 0 1-5 2 6 15-6 1-20 7 33-4 0 3 3-1 3-5 7-4-10-5-1-8-7 2 7-2 6-1 5-2-6-3-3-13-17-28-10-4 2-3-1-3 3-23 19-9 3-37 23-3 7-3-3-2-7-4-1 12-4-2-4 1-5 6 2 10-4 4 0 10-4 17-4-2-5 2-6-2-4 5-3 4 2 4-2 6 2 5-2 1-8zm-23 10l4 4-4-4zm8 0l0 3 4-2-4-1zm-8 8l0 3 4-2-4-1zm90 6l0 3 4 0-4 6 6-4-6-5zm5 12l3 3-3-3zm-131 6l0 3 4-2-4-1zm-12 4l0 3 4-2-4-1zM280 40l8 8-8-8zM503 40l9 1-9 1 0-2zM497 44l23 4-23-4zM527 44l20 4 4 2 3-1-2 4 8 5-2 5 8 2-2 4 8-4-4 9-4 1 6 1 5-10-1 3-6 10 2 4-2 5 4-5 2 0 2 8-4 0-4 9-8-27 1-3-37-20 3-6zm10 4l2 4 3-1-5-3zM436 48l6 3 2 13-6-1 2-6-3-4zM469 48l16 0 7 1-22 14-4 11-8-1 6-1 8-19-3-5z"/><path fill="#FAFBF9" stroke="#FAFBF9" d="M559 48l1 5-1 3-3-5 3-3zM465 50l0 6zM160 64l4 4-4-4zM184 64l11 2 5-2 2 5-3 1-4-2 0 4-11-4 0-4zM172 68l7 4 4-2-4 6-11-4 4-4zM452 80l4 4-4 7-2 0 2-11zM458 80l6 1-2 14 2 7-4-15-2 0-2 12 2 4-4-2 4-21zM575 96l9 7 7 9 8-2 0 2-7 1 4 2-3 1-3-1-1 5-1-5 1-3-5 3 9 21 7 15-2 0-1-3-3 27 4 1 1-6 1 5-3 7-5-2 2-21-12-32 2-4-16-12 4-8 2 0 1 11 9-2-8-13-1-3zm4 18l-1 5 2 0-1-5zM460 104l4 3 10 18-51 31 1-3 3-3-3-5-4-10 4 0-6-7 5 2 4-2 5-1 1-3 2 4-5 3 2 4-2 4 1 5 9-3 3-5-7-4 14-3-6-2 7-11 1 8 4 3 5 3-1-3 5-9 3-1-4-1-1-6-6 2 0-2 3-6zm-34 28l4 4-4-4zm26 0l0 3 4-2-4-1zm-3 4l2 4-2-4zM153 106l1 6 6 3 4 6-4 2-3-5-5-3-2-6 3-3zM393 112l19 15-10 1 2-5-5-1 0 4-10-6-1 4-4-5-2-5 7 2 4-4z"/><path fill="#FAFBF9" stroke="#FAFBF9" d="M592 122l8 4-9 4-1-3 2-5zM165 124l20 24 17 13 1 5 4-2 29 27-2 5-6 3 4 0-3 15-2-14-2 4-1-3 2-9 6-3-3-1-6 2-3-1 5-3 3 1-10-3-2 8-4-3 2-5-4-1 4-6-3-1-3 1 3-5-15 2 3 6 0 2-7 2 1-14 6 2 5-3-5-3-2 4-1-3-4-8-3-3-5 3 3-5-7 2-1 4-2-4-3 1 6-10-3 1-5-3 1-3-4 2-1-5-1-3-5-1 3-11zm52 52l3 3-3-3zM391 124l-1 3-2-4 4-2zM394 128l8 5-5 3-3-8zM413 130l7 16-9-8 2-8zM343 144l19 11 2 4-3-1-3 1 1 7-3-8-5-2-12 2-4-2-7 4 5-14 6 2 4-4zm0 2l0 2 5-1-5-1zm-2 4l0 2 5-1-5-1zm12 2l2 4-2-4zm-14 2l0 2 5-1-5-1zM415 148l5 4-5-4z"/><path fill="#FAFBF9" stroke="#FAFBF9" d="M335 160l3 1-4 2 4 19 4 3 6 9 10 3-3 3-4 0-7-5 2-4-3 1-3-3-8-12 1-3-3-1 5-13zM599 160l1 5-2 0 1-5zM347 162l7 2-5 8 0-8-2-2zm4 4l-3 3 4 1-1-4zM365 162l6 14 3-1 2 12-2 0-5-11-7-3-2-4 6 2-1-9zM355 174l2 4-2-4z"/><path fill="#FAFBF9" stroke="#FAFBF9" d="M367 178l3 12 4 1-3 1-3-1-1 3-1-3 2-4-2-4 1-5zM591 184l1 9-4 0-5 15-3-1 1-3-3 3-2 9 4 4-12 4 8-8-4-3-2 0-1 3-1-4-9-2-1 7 2 4-5 3 0-2 3-4-12 6-1-4-2 6-3-5 6-4 5-9 37-17 3-7zm-8 14l-1 5 2 0-1-5zm-31 14l0 5 4-2-4-3zM200 188l10 1-10 3 0-4zM356 188l4 4-4-4zM591 196l1 4q15.2-4.4 8 16-12 4.5-8-9l-4 0 4-6-1-5zM224 224l4 8-4-8zM536 226l8 5-3 9-5 1 4 7-5-2-3 1-1-3-6 4-5-3 7 5 0 2-7 2-13-4-17 7 2 7 4-1-1-3 11 7 2 4 1 5 3-1-1-3 5 3-4 1 1 4 4 0 3 3 6 10-2 4 4 0 0 4 3 5 5 3-4 8 2 6-2 8 2 36-6 4-1-5-21 9 6 2-5 1-2-6-9 2 2 5-1 3 10-2 0 2-10 2-4-2-4 2 2-4 5-1-10-2 8-1-5-4-8 2-6 2-10-4-7 11 3 1 3-1-8 17 5-2 3 6 8-8-2 9 1 3-3 8 5 2 3-6 4 3 1 5 11-4-4 15 4 7 4 1-3 1-25-17-1-5-3-3 0-4-1-3-5-1-10-16 1-3-3-1 2-6 2-4-2-6-2-4 8 0-4-8 6 2-5-13-2 6-3-1 2 6-11-5-11-2-4-11 1-3-3-3-2-4-2-6 32 14 3-1 17 35 38 6 19-13 4-34-33-53-3-1 1-3-19-5 4-7-7 4-4 2-9-7-2-4 4 2 4 0 6 2 16-2 4 2 21-6 3-4 11-7 6-11zm-35 40l-1 6 4-1-3-5zm14 16l-1 3 6 0-5-3zm-78 48l-11 3 4 6-1 3 6-2 4 0 8-4 0-2-10-4zm15 32l0 3-1 3 5-3-4-3zm7 8l-3 3 4 7-1-10zm-6 4l-1 7 2 0-1-7zm-4 8l3 3-3-3zm28 42l-3 3 4 1-1-4zM225 234l5 14 7-4 1 3-3 11-3-1-2 4 12 4 4 18 1 5 6 4 3 1 1-7 7 13-4 2 6 4 5 7 6-10 17 9-3 7-3-1-4 3 2-8-9-2-7 5 2 5-13-2-3 1 2-4 0-4q-25.9 2.8-22-19l8-1-4-15-4-3-5-3-3 6-4-7 1-5 3-5 4-8-2 0-3 5-1-3 2-4-4 0 1-15zm4 30l3 3-3-3zm18 32l3 3-3-3zm-7 4l0 3 4-2-4-1zm20 8l-2 5 2 5 4-3 0-4-4-3z"/><path fill="#FAFBF9" stroke="#FAFBF9" d="M511 252l1 8-8 2 3-4 4-6zM540 252l4 4-4-4zM501 254l5 1-7 3 2-4zM518 272l8 8-8-8zM224 280l8 8-8-8zM74 288l14 3-2 5 11 2 1-3-8-4 5-1 21 6 4 7 4 8-3 5 3 4-11-8-9 5-2 6 2 13-8-4 6-3-1-5-2 4-1-5 9-19 2 4 1-5-2-5-7-2 0 4-10 4 2-6-17-6-3 14 2 4 3-6 6-3-4 0 3-3 5 2-2 5-10 14-1 3-1-6-14 8-2 10-4 3-2 6-3 21-6-4-4 2-3-1-4 3 12-28-3 16 0 2 7 2 4-21-4 0 1-3-5-4 4-3 1-5 5 1-4 6 8-6 3-7 6 4 1-3-3-5 11 5-5-7-3-1 4-2-2-4 4-13zm5 20l2 4-2-4zm-27 20l0 3 4-2-4-1zm-13 26l-1 5 2 0-1-5z"/><path fill="#FAFBF9" stroke="#FAFBF9" d="M105 288l7 5-3 1-5-2 1-4zM124 292l4 1-4 2 0-3zM296 312l12 3-9 3-3-6zM111 314l1 3-1 5-3-1-1 3-1-3 5-7zM317 316l7 3 8 16-2 5 4 5 2 6-8 3 4-7-5-9-3 34 4-1-1-3 5-3-4-7 8-3 2 0-3 13-5 3-4 31 4 3q-15.5 16.5-49 15l0-2 27-5-4-2 2-4-2-4 5-3 0 2-3 4 13-6 6 4-1-3 2-8-2-12 2-4-6-33 4-1-4-1 2-7-2-4 2-4-5-11zm6 4l-1 5 2 0-1-5zm-6 82l-6 4-2 4 11-7-3-1zM32 320l4 8-4-8zM537 324l1 5-2 0 1-5zM540 328l4 16-4-3-2-8 2-5zM120 332l8 8-8-8zM96 348l8 6-6 3-2 0 0-9zM116 352l4 4-4-4zM124 352l4 4-4-4zM102 356l4 3-2 5 4 11 1-5 1 9-2 5 10 8-4 4 14 9 6 16-2 4 8-4-2 4 2 5 6-4-4-1 8-2-6-4 9-3 7 3-5 1-4-2 2 4 12 2 0-2-3-1 4-2-4-2 17-1 4 0 11 1-1 3 6-4 1 4 12-1-1-3 26 4 16-2 6 2 0-2-3-1 6-1 1 4 2-4 2 4 4 0 5 1-90 1-1-4-1 6-29 4-5-2-3 4-6 2-3-3-1-5-3-3-3-7-3-3-12-20 4-2-6-2 1-3-3-5-6-25zm23 46l1 7 2 0-3-7zm48 18l0 2 7-1-7-1zM36 366l6 1-4 1 2 23-4 2 0-27z"/><path fill="#FAFBF9" stroke="#FAFBF9" d="M124 376l4 12-8-8 4-4zM476 384l4 4-4-4zM125 390l1 7-2 0 1-7zM41 400l3 7-1 3 3 5 4 14-3-1-7-5 4-1-2-5 0-4-3-5-3 16-4-7 4-13 5-4zM41 430l5 1-5 1 0-2zM48 432l6 3 10 16-6-2 3 5 43 22-2 27 2 6-2 0-4-21 4-3-2-5-4-1 1-3-12 4-4-2-8 2 0-6 5 3 3-5-2-4-3-3-2 0-4 3 2-5-3-1-5 3 2-6-4 0-5-5-2 0-5 9 1-3-2-8 4-6-4-11zm7 12l-3 3 4 1-1-4zm30 32l0 2 5-1-5-1zM481 438l9 2 4 7-9 3-4-2-3 1-2-9 5-2zm4 6l0 2 5-1-5-1zM43 440l1 7-2 0 1-7zM36 444l4 4-4-4zM512 448l12 12q-18 6-12-12zM540 448l4 12-12-4 8-8z"/><path fill="#FAFBF9" stroke="#FAFBF9" d="M487 454l5 9-2 16 1 3-7 1 11 1 11-4-4-9 11-7 4 8 3-3-1-3 24 4 0-2-11-3 3-1 13 3-2 4 5-3 5 1 1 9 3-1-2-4 2-4-1-3 5 2q-7 17.5 7 14l4-2 9 7 5 11 2-4 2 6 4 2 1-3-1-3 3 19-2 0-7-15-3 1-3-3-5-2-1-6-4 2-17-8-1-4-3 1 1-3-6 2-19-4-1-4-1 4-11-2 0 4-16 6-3-1-5 3-20 8 1-3-4-11 10 4 1-6 3 1-2-12 1-3-3-5 4 2 1 3 3-5-1-5zm0 14l-1 9 2 0-1-9zm21 4l0 4 8-3-8-1zm13 0l0 2 5-1-5-1zm16 0l0 2 5-1-5-1zm8 2l0 2 5-1-5-1zm32 10l-5 3 6 1-1-4zM57 458l5 2-1 4-4-2-3 1 3-5z"/><path fill="#FAFBF9" stroke="#FAFBF9" d="M495 462l5 3-3 1-2-4zM64 468l4 8-4-8zM588 480l12 4-10 3-4-2 2-5zM99 510l7 5-25 41-6 4-26 18 3-5-1-3-7-3-4-6 8-1 1 4 10-4 8 2 5-2 5-8 7-4-1-4-3 1 2-6-2-5 8-6 3 4 1-5 4-3 1 6 3-17-4 0 3-3zm-12 22l-3 12 6-1-4-1 2-7-1-3zm6 4l-3 5 4-2-1-3zm-38 26l0 2 5-1-5-1zm-4 2l-3 3 1 3 5-2-3-4zM599 532l1 7-3 5 3 16-26 1 1 3-14 4 0 2 15 2-12 4-3-4 0 4-6-2-6 2-5-3 3-1 6 2 0-2-8-4-6 4-2-4 7-4-15-4-4-2-5 2 3-4-2-4-3-3-2-5-6-1 7-3 7 4 3 4 34 16 29-12 9-20zm-46 34l-3 3 4 1-1-4z"/><path fill="#FAFBF9" stroke="#FAFBF9" d="M64 544l8 4-4 7-2 0-2-11zM505 544l7 13 0 4-4 7-4-9-3 1-4-2-3 1 1-3-7 5-6 7-3-4 0 4-3-1 4 9-6-1 1-3-6 4-1-4-6 1 1 3-5-2-3 4-7 2 2 5-3-1-9 1 1 3-3 1 5 1 6-2 0 2-10 2-8-4-6 2 4-6 72-36 4 2 2-6zM231 560l2 6 6-2 17 7-8 3-3 4-5-3 6-2-20-5 1 4 4-2 0 6-7 1 14 3 1 4 2-6 10 4 0-4 4 2 3-1 1 5 3-3 1-5 1 6 6-4-4-4 6 1-1 3 10-2 7 2 3 6 0 4q26.5 6 25-4l-9 2-4 0-7-1 4-2-6-2 13-1 11 2 2 13-5-3-37-1 10-2-8-2 8-2-17-3-1 4-7-2 3 5 3-1-2 4 16 8 0 11-2 4 6 2 4 14-2 0-5-11-2 4-3-5 1-3-3-3-26-32 4-2-5-1-4 2-18-2-38 4 0-2 12-8 4 2 0-4 5-1 3-7 7-2 5-8zm-9 12l0 3 4-2-4-1zm1 6l0 8 1-4 4-1-5-3zm-6 2l-4 4-7 4 14-5-3-3zm14 2l-2 4 5-3-3-1zM235 572l3 3-3-3z"/><path fill="#FAFBF9" stroke="#FAFBF9" d="M261 572l3 1-7 3 0-2 4-2zM482 572l8 4-8-4zM32 576l4 3 3-1 6-2 0 4 3 1-11 17-3-1 2 6-2 9-6 3 1 5 2-4 1 3-19 43-3-5 8-18-2-4 2 0 1 3 5-3-6-4 1-3 2 4 3-6-8-18 4 3 2 6 1 7 3-13 0-4 5-15 4 0 0-4 4-6-3-1-7 4 0-8zM399 584l4 0 13 4-5 4-15-5 3-3zM394 590l6 3-8 14 0 4-5 13-2-4-5 20-4-3 6-19 8-5-1-5-4 6 1-3 8-21zM313 600q14.4-4.6 9 11l2 8-2 0-3-17-4 2-2-4zM399 600l9 4 4-4q4.4 14.4-14 8l0 11-4 2 5-21zM307 602l4 6-5-3 1-3zM416 604l4 4-4-4zM440 604l8 4-8-4zM125 610l3 3-1 7 3 3 26 12-4 1-1 4-10-4 0 4-13-3 4-1-1-4-4 0-8 2 1-3 4-10-3-1-6 4-9-5 19-9zm6 16l-3 3 4 1-1-4zm4 8l0 2 5-1-5-1z"/><path fill="#FAFBF9" stroke="#FAFBF9" d="M17 614l1 5-2 0 1-5zM101 620l7 3-4 1 2 9-1 3 5-3 2 0 4 7-26-12 1 4 3-1-2 4 4 0-8 13-1-8-1 12-10 11 2 0 1-5 5 2-6 7-2 0-4-12 17-29 12-6zm-12 12l-1 5 4 2-3-7zm-9 8l4 8-4-8zM11 624l1 15-2 0 1-15zM321 624l1 15-4 6 2 4-2 0-2-6 5-19zM299 628l3 11-2 0-1-11zM289 634l3 10 4 7 6 10-3-1-3 3-4 6 4 2 3-7 1 5-4 6 4 2 5-13-1 3 1 5 4-10 2 4 1-5-2-4 2-9 4 3 2 4-10 34 4 8 6 28-1 3 3 5 5 7 27 13-11 1-5-1-1-3-6 4-4-2-5 2 1-4 4 0 6 2 2-4-9-4-3 4-1-5-3-7-5-2 2-10-4-3 2-8-2 0-1 5-3-6 4-6-4-1 2-9-8-4-4 12 4 16-12-24 4-21-3 1-3 3 1 3-4 0-3 1 6 2-7 3-2-4-5 3 1-3-7 1 2 11 8 8-8-4-4 4-11-12-5-1-13-7 0 4-4-2-4 2 0-2 3-1-5-1-6 2-9-7-2-6 2-4-2-6-4-12 6-3q4.4-14.4-14-8l-1 12-3-12-25-2-6 2 0-2 14-2 37 2 6 33 1 5 4-2 36 14 14-8 4 0 7-5 3-7 2 4 3-11-4 0 2-22-1-5zm-79 38l0 3 8 5-8-8zm9 8l2 4 8-2 3 1-13-3zM0 640l4 8-4-8z"/><path fill="#FAFBF9" stroke="#FAFBF9" d="M306 640l8 5-4 0-1 3-3-8zM379 644l5 13-4 2-1-15zM305 646l1 5-2 0 1-5zM375 646l3 21-2 0-4-12 3-9zM88 652l18 24-14-4-4-20zM307 654l1 5-4-2 3-3zM5 656l7 9-2 5-4 1 0 4-5 11-1-7 4-8 2-12-1-3zm2 6l-1 5 2 0-1-5zM71 662l1 10 4 1-1 3 5-3 4-5 6 7 6 10-12-6 1-3-4-2-1 4-10 2-2-11 3-7zM381 666l3 10 19 4-16 1-14-11 3-7zM373 668l1 3-3 7-1-5 3-5z"/><path fill="#FAFBF9" stroke="#FAFBF9" d="M375 676l4 14 8-2 12 4 8-4 0 2-5 1 22 10 3 5 5 1-2 6 0 4-2 8 4 8 0 8-1 3-5 1 4 2-3 1-5-2-3 6-10 2-4 0-11-1 12-6 9-3 9-4 2-17-12-20 1-3-4 2-10-8-16 2-6-2-7-5 3-13zm10 14l2 4 9-1-11-3zm22 4l0 2 5-1-5-1zm16 10l0 6zm6 2l-3 5 4-2-1-3zm-12 40l-3 3 4 1-1-4z"/><path fill="#FAFBF9" stroke="#FAFBF9" d="M381 682l1 5-2 0 1-5zM112 684l12 20-11-12-1-5 0-3zM209 684l5 3-3 1-2-4zM97 688l5 3 2 13 6 3-2 4 2 4-2 0-4-10-7-17zM224 692l4 3 2 0 1-3 1 8 10-1-1-3 7 8q-26.9 3.6-24-12zM1 708l3 5-1 3 9 7-4 2 5 1 4-2 19 7-4 1-3 4-25-8-3-20zM103 714l1 5-7 5-5 1 4 8-5 3-4 0-6-2-30 2-6-2-5 2 1-4 36 0 26-18zm-10 16l-3 3 4 1-1-4zM436 716l4 4-4 8 8 8-8 0-4-16 4-4zM305 718l3 11-2 0-1-11zM1 726l1 6 6 4q-13.2 4.2-7-10zM296 728l8 8-8-8zM108 732l4 4-4-4zM444 748l4 4-4-4zM425 750l5 1-5 1 0-2z"/><path fill="#C66841" stroke="#C66841" d="M377 0l27 11q20.7 26.3 20 74l-19 3-17-6-2 14 16 13 12 16-13-11-16-4-3 11 5 11 3-6 5-2 11 6 6 21-1 3 9 2 1-4 1 4 54-31q-16.6-13.4-12-48l17-23 40-6 35 19 12 36-11 23-38-6-38 10-4-2-30 50-72 16 0-2 3-9-23-35-14-6-13 9q-1.8 38.8 23 51l4 2 7-5-20 44 11 21 65 43 4 10-3-1-7-2 13 34 17 9 6 22-4 8 14 22-3 21-5-10-4 7 2 7-29-16-1 3 10 20-5-3-6-4-1 3 12 48-14 64 3-1 27-21 7-13 4 6 6-24 2 4 4-2 5 3-2-6 3 1 60-20q41.8 7.2 63 35l4 18-10 12 0 4-5 9-36 8-34-24-74 42-36 4-6-2q-28.8 38.2-29 105l5 7q33.5-1.5 45 19l4 22q-18.4 24.6-67 19l-35-19-12-62q17.5-23.5 14-68l-6-28q15.7-23.3 12-66l-3 1-48 8-33-4q2.1 31-14 44l-40 29 27 3 6-2 28-2 7 4 28 43 0 28-6 15-11 2-3-1-3 3-12 6-39-23-2-24 1-3q-57.6 7.6-83-17l-1-15-45 22-18 49 30 12 6 24-2 5-27 14H49L4 713l-4-22 38-94 17-21 29-21 22-42-2-28 2-9-42-25-20-60 6 3 11 13 4-22 18 22 1-3-4-12 0-4 3-7 10 16 1-3-2-24 5-7 1 5 37 77 58-16 108-2 27-15-2-28 7-9 5-3-19-51-46-14-4 12-13-28-4 5 1 3-7-5-6-20 1-3-9-1 4-20-5 3-3-35 6-22-64-56-10-30 13-15 62-36 16 0 25 19 9 17 3-14 12 9 3 5q17.1-13.9 7-55l11-19 54-14zm2 2l2 4 7-3-9-1zm-6 2l4 4 3-1-7-3zm16 0l-3 3 5 1 12 10 1-3-15-11zm-22 2l0 2 5-1-5-1zm42 20l-1 5 2 0-1-5zM241 54l-7 3 9 3 4-2 12 2 0 4 5 4 5 2 3-1-31-15zm111 10l0 5 10 4-6 8 2 5 13 2 5-11-24-13zm-79 6l3 9 4 2-7-11zm-79 48l0 3 59 41 5-1-6-28q5-15-7-11l-4 0-47-4zm200 10l3 8 5-6-8-2zM115 406l-1 3 4 2-3-5zm4 6l-1 3 4 2-3-5zm10 18l-1 5 4 2-3-7zm62 44l0 2 5-1-5-1zm328 6l0 2 21-1-21-1zm24 2l0 2 5-1-5-1zm6 2l0 2 5-1-5-1zm-46 2l-27 12 1 4 29-15-3-1zm-276 4l2 4 3-1-5-3zm6 4l-1 3 4 2-3-5zm172 62l-1 5 2 0-1-5zm-4 10l-1 5 2 0-1-5zm-166 24l26 12 1-3-27-9zm142 26l-1 5 2 0-1-5zm-94 14l-1 5 2 0-1-5zm114 70l0 2 5-1-5-1z"/><path fill="#C66841" stroke="#C66841" d="M415 128l7 13-2 0-5-13zM341 158l17 6 8 27-9 5-15-11-6-20 5-7zm6 4l-3 3 2 7 10-3-2-4-7-3zm8 12l2 4-2-4zm1 14l4 4-4-4zM591 170l1 7-2 0 1-7zM589 180l1 3-3 5-1-3 3-5zM585 190l-4 6 4-6zM553 198l-3 5 2 4-8 6-3 5 1-3 11-17zM563 202l5 1-5 1 0-2zM539 220l-2 4 2-4zM393 222l45 17 0 4 13 17 41 9-3-1-22-6-4 0-13 3 14 7 4 7 6 8-4-2-3-5-5-3-3-3-26-10-9 5 3 5 4 0 21 15 29 63 26 6 6-4 4 2 9-7 3-19 1 13-13 21-26 6-27-10-25-70-33-21-20-42 7-5zM523 236l-2 4 2-4zM443 240l15 5-7-1-8-4zM513 242l-2 4-3-1 5-3zM501 246l5 1-5 1 0-2zM473 248l7 1-7 1 0-2zM483 248l9 1-9 1 0-2zM457 250l2 4-2-4z"/><path fill="#C66841" stroke="#C66841" d="M495 270l13 11 20 46-2 0q-6.5-39.3-31-57zM81 316l-4 6 4-6zM425 318l2 4-2-4zM65 324l-3 5 1-3 5-7zM71 324l5 1-2 5-3-6zM443 324l5 1-5 1 0-2zM53 346l1 9-2 0 1-9zM53 366l1 3-6 0 5-3zM461 414l2 4-2-4zM471 438l2 4-2-4zM479 458l1 5-2 0 1-5zM473 476l4 6-4-6zM263 570l5 1-5 1 0-2zM309 578l7 1-7 1 0-2z"/><path fill="#FEFEFE" stroke="#FEFEFE" d="M0 0l287 0 5 8q-4.3-13.6 12-8l8 8 8-8 1 6 1-4 5-2-1 3 13 3 20-6 0 2-9 3 1 3-8 2-20-4-3 6-11 4 7 1-6 4 2 4-5-3-15-16q-11.9 29.5 11 24l3 1-2-4 3-1 3 7-2 6 2 10-2 0-3-11-1 20-16 7 3 1 4-2 0 2-6 4-3 5-1 5-1-5 2-4-6-8 4 0-8-8 2-4-2-5-6 1-1 5-5-3 4-2-16-1-8-8-3 4-8-4-1 7 3 5-4 0-6 2 0-2 3-1-5-1-8 6-5-2 3 4-5 11-9 3-13 4-5 4-7 5-5-3 2 6-10-6 2 4 3 1-16 8 4 1 2 10 4 6-6-5-4 2 5 9 5 3 1 3 3-1 2 10-4 0 3 5 3-1 3 5 4-2-3 5 5 3 3-1-4 8 5-3 11 4 9 12 3 1-4 2 12 2-1 3 3 1-4 6 3 1 4-2 11 2 3 4-2 4-3 7 2 0 3-3-3 5-2 18 2 5-4 8 4 3-4 0 1 15 3-1-2 6 4-2 1-3 3 12-4-1 2-4-4 2 4 8-5-3-3 1 0 4 4 7 3-6 5 3 4 14 3 5q-13.1-3.4-7 12l7-4-3 5 18 3-3-6-4 2 0-2 4-2 5 8 4 3 0 4-3 3 0 2 11-3-3-5 4 2 6-2 7 3-2 5 4-3 6-2-1-3 3 3 5 3 14-2 6 10 2-6 1 5-2 4 2 4-4 9 5 2 1-5-1-3 7 14-4 4 7-2 1 6-8 4 4 3-6 4 1 3-7-28 6 35-2 12 4 10-5 3-5 1 1 3-4 0-6 2 0-4-3 3-1 3 3 1-35 7-5-1-1-3-2 4-1-4-6 1 4 2-5 1-16-2-25 2-3-4 0 4-11-3-5 3-3-1 1-3-22 6 0-2 9-3-17-1 0 2 3 1-4 2 4 2-7 1-9-5 4-2-7-1 0 6 3 1-8 2 4 1-9 8-3 1 6-8-4 0 2-4-8 4 2-4-2-4 2-6-5-9-4 8 1-3-2-6 1-3-9-4-3-4 7 2-10-11 2-10-2 0-1 5-1-12-4-3 2-5-4-1 2-7q-13.6 4.3-8-12 12.8 4.6 8-11l-2 0-3 7-1-3 8-14-1-3 8 0 11 8-3-4 3-5-4-11-15-4-4 2 0-2 3-1-7-3 1 3-1 3-10-2 0 2 7 1-4 7-12 6-1-4-1 5-1 3-9-3 2 4-4 2-1-5-5 3 1 5 3-1-1 5-3-1-5 7-4-8-1 4-4 4 8 3 2 4-6 2-3 15-5-2-2 7 4 1q-10.9 1.1-6 31l4 0-4 16 8 0-2 4 2 6-3 3 4 6 7 3-4 1 1 8 2-4 1 3 0 4 1 3 3-1-3 3-5 1 3 9 4-8 1 6 7 2 3-1 3 5 3 1-2 5 4-3 2 0 3 3 2 4-3 5-8 0 9 3 5-3-4-2 3-1 10 4 4-2 0 4 3 3 2 5-4 9 6 14-4 1-5 22-1-3 2-7-4 3-1 5-3 3-2 7 4-3 4-2-5 7-8 4-9 4-3 8-15 4-3 4 1 3-2 4-1 5-10-2 0 2 5 3-6 2 2 4-7 5-7-2-2 17 2 8-3 7-1-7-1 14 4 3-3 5 3 1-6 4 2 4-4 0-4 12 0 4-1 5-3-1-1 5-2-6-4 12-1-26 4-8-4-1V0zm224 32l6 4-6-4zm44 0l-4 8 12 4q6-16-8-12zm12 8l8 8-8-8zm-66 10l4 4-4-4zm73 10l-1 5 2 0-1-5zm-127 4l4 4-4-4zm24 0l0 4 11 4 0-4 4 2 3-1-2-5-5 2-11-2zm-12 4l-4 4 11 4 4-6-4 2-7-4zm21 102l-1 14 7-2 0-2-3-6 4-1-7-3zm21 14l-2 5 4 3 2-5-4-3zm-14 4l0 4 10-3-10-1zm24 92l4 4-4-4zm4 4l4 4-4-4zm-154 4l-2 5 2 10-1 3 3-14 9 4 3-5-14-3zm31 0l2 4-2-4zm-14 2l0 2 5-1-5-1zm33 2l0 3 4-2-4-1zm-44 6l0 3 4-2-4-1zm4 2l-6 7 10-4-4-3zm-52 20l4 8-4-8zm23 4l-3 3 4 1-1-4zm65 8l8 8-8-8zm-80 4l4 16-4-16zm-8 16l4 12 4-11-8-1zm84 0l4 4-4-4zm8 0l4 4-4-4zm0 24l-4 4 8 8-4-12zm1 14l-1 7 2 0-1-7zm200 6l-1 5 2 0-1-5zm-12 6l-2 4 5-3-3-1zm-278 8l-3 7 4 7-1-14zm122 8l0 2 5-1-5-1zM41 430l0 2 5-1-5-1zm2 10l-1 7 2 0-1-7zm-7 4l4 4-4-4zm21 14l-3 5 3-1 4 2 1-4-5-2zm7 10l4 8-4-8zm21 10l0 2 5-1-5-1zm-1 50l0 5 4-2-4-3zm-4 6l2 9 2 0-4-9zm-16 10l2 11 2 0 4-7-8-4zm-23 16l6 10 1-3 0-4-7-3zm14 0l0 2 5-1-5-1zm174 10l-5 5 7 1 1-5-3-1zm6 2l3 3-3-3zm-203 4l3 8 1-5-4-3zm231 0l-3 3 2 5 8 2-6-4-1-6zm44 26l-1 3 5 3-4-6zm-291 6l4 4-4-4zm1 6l-1 5 2 0-1-5zm-6 10l-1 15 2 0-1-15zm290 6l-1 9 2 0-1-9zm-190 2l-7 4 12 4-4-4-1-4zm-16 2l-3 3 4 3-1-6zm66 4l0 2 5-1-5-1zm145 2l3 8 1-3 4 0-8-5zm-1 6l-1 5 2 0-1-5zm-217 6l4 4-4-4zm219 2l-3 3 4 2-1-5zm-215 2l4 16-4-16zm-13 2l-1 6 6-4-5-2zm220 6l-3 7 4-2-1-5zm4 2l-1 5 2 0-1-5zm-92 2l2 4-2-4zM401 0l4 2 7-1 1 3 187-4 0 109-7 1 0 2 7 10-8 3-2 4 3-1 7-2-4 18-3-8-9-21 6-4-5-7-1 8-9 2-2-12-1 6-4-8 4-9 4 0-3-9-1 6-4-3 2-4-1-5-5-1 4-1 2-7-6 2 2-4-12-6-2-6-3-3-4 2-4 0-5-3 3-1 5-1-17-3-7 4-23-4 0 4-16 4-15 7-2 13-6 1 6 2-4 2 4 2-6 1 2 22 4 1-4 1-3 6 0 2 6-2 1 6 4 1-8 6 4 8-3-1-7 5 1 3-4-6-4 0-11 4 8 1-4 7-10 1 6 2-7-1 1 3-3-3 6-4 0-4-4-3-1 4-5-7 4-2-8-3-8-11 4 0 4-9-4-7 2-7 7 2 1-4 6-1-4-2 3-1 8 6 8-12-4-3 2-5-13 12 2-17-4-5 4 0-2-11-4-3-1-3 3 1-2-6 2 0 1 3 3-8-8 3-1 5-7-3-4-20 2-6-3-7-2 8-2-4-3 1 2-4-5-5zm79 32l14 4-14-4zm33 0l-9 3 9 3 15-2-15-4zm39 0l12 4-12-4zm-49 8l0 2 9-1-9-1zm-67 8l3 4-2 6 6 1-2-13-6-3zm121 10l3 3-3-3zM452 80l4 4-4-4zm-1 4l-1 7 2 0-1-7zm6 2l-1 9 2 0-1-9zm-2 10l-1 5 4 2-3-7zm120 0l1 3 8 5q5-12-9-8zm14 18l-1 5 2 0-1-5zm-138 2l-7 11 11 5 1-5-4-3-1-8zm-18 8l2 4-2-4zm-8 4l2 4 3-1-5-3z"/><path fill="#FEFEFE" stroke="#FEFEFE" d="M300 64l6 5-1 7 3-3 4 2-4 1-1 4-5-3-1 3-3-5 4-6-2-5zM395 88l5 1 1 5 3-1-2 4 8 6-4 8-2 0 2-8-8-3 2-5-4-2-1 7-1-5 1-7zM385 112l7 1-5 3-2-4zM579 114l7 13-4-2-3-11zM393 116l9 3-4 2 6 2-7-1-10 4 1-3 4 2 2-4-2-2zM405 128l7 3-1 5-3-6-3-2zM449 136l2 4-2-4zM413 138l6 8 0 2-5-7-1-3zM335 144l13 3-5 1-4 0-4-4zM597 148l3 11-2 6 2 4-2 6 2 25-8 3 0 4 8 10 0 263-12 3 1 5 1-4q15.8-5.6 10 13l-3 5-5-2-1 4-1-3 1-7-4 6 1-3-9-15-3 1 2 5-6-1 4-2-12-3-4-14-2 7 1 3-3 1 1 3-7-3 6-2-1-9-8 4-1-3 1-3-11 1 8 2-13 1-11-2 5 4 0 2-8 2-4-2-5 2 7-4-4-6-9 5 4 9-8 1 1 3-4 0-11-1 8-2-2-16 0-4-3-7-1 3 2 4-6 4 2-4-4-7 4-1-4-1 3-4 8 2 3-6-9 2 5-4-8-1 10-1-1-4-4 2 0-2 3-1-2-8 4-9-12 7-2 5-4-1 6-8 0-4-4-3-2 5 2 4-4 2 2-4-6-3 3-8 1-5-4-7-4 8-1-4-4 0-3-4 8-13-3 1-3-1 1-3-3-7 4-2 1 9 4-8 10 4 6-2 13-2-7 4 0 2 12-4 6-2 6 2 15-7-1-3 4 8 5-39-2-6 2-4-2-6 4-8-8-3-4-11 2-4-5-7-7 1 1-3 5 2-3-4-5-1-3-3-3-7-3-5-8-4 0 4-3-5-1-3 5-1-4-2 3-1 4 0 21-2 1-6 6 2 4-2 2 4 4 0 3-4-4-3-3-5 8 4 3-9-8 0 5-7 3 1 1-5 1 4 6-3-4-2 4-1-1-6-7 5 9-5 3 3-1 3 3-7-1-3 11 4 1 4 2-4 1 4 4-7 2-4-1-3 5 2 1-6 1 5-3 5 7-5 1-11 3 1 3-13 3 1-3-5 1-3 1-25zm-21 68l4 4-4-4zm-8 4l8 4-8-4zm-48 30l0 4 8-3-8-1zm-9 2l-4 6-3 4 8-2-1-8zm29 0l4 4-4-4zm-39 2l-2 4 7-3-5-1zm17 18l4 4-4-4zm4 4l4 4-4-4zm15 48l-1 5 2 0-1-5zm3 4l-2 5 2 8 4 3-4-16zm-33 48l0 2 5-1-5-1zm-16 4l-2 4 7-3-5-1zm10 0l-4 2 0 2 11-3-7-1zm-25 4l4 4-4-4zm36 64q-6 18 12 12l-12-12zm28 0l-8 8 12 4-4-12zM341 150l7 3-1 3-1-4-5-2zM353 152l15 11-4 0 2 8-6-4-2-4-1-5-2 4-3-7 1-3zM339 154l5 1-6 1-3 4 0 4-3-1-1 9-3-12 4-1-1-3 4 0 4-2zM199 160l5 2-1 4-4-6zM346 164l6 3-3 3-3-6zM369 166l3 9-5 7 0-6 3-3-1-7zM333 174l2 4-2-4zM217 176l3 3-3-3zM529 236l-2 4 2-4zM473 252l7 2-3 6-5-1 4-1-3-4 0-2z"/><path fill="#FEFEFE" stroke="#FEFEFE" d="M501 266l3 5-4 1 1-6zM245 284l2 4-2-4zM243 294l7 2-1 4-6-6zM111 300l-1 3-1 5-1-5 3-3zM419 320l-2 4 2-4zM437 330l10 4 0 2-8 4-4 0-6 2 1-3-1-3-4 2-4-6 6 4 0-4 10-2zM449 342l7 17-2 0-5-7-1 3 4 7 4 3-1 5-4-2-3 1 0-4 2-4-6-2 2-8-3 1-3-1 4-1 1-4 3 1 1-5zM451 372l3 9-2 4 4 6-2 0-5-7-3 1 6-3-1-10zM449 388l2 4-2-4zM461 406l3 5-2 0-1-5zM467 418l2 4-2-4zM59 448l4 6-5-3 1-3zM487 468l1 9-2 0 1-9zM537 472l5 1-5 1 0-2zM545 474l5 1-5 1 0-2zM475 484l5 3-3 1-2-4zM597 536l3 8-4-1 0-4 1-3zM508 544l8 3 2 5 6 3-4 1 3 4 4-2 13 2 4 7 5 3 5-3-3 3 0 2 8 2 2-6 14-4 0-4 25 1 0 193H415l-5-5 8-2-3 3 0 2 7-3 3-3 7-3-2-4-2-6 2-6-2-4 2-6-1-3-4 6-1-3 2-4-6 2-1-5-3 1 8-4-3-5-4-2-4 2-7-3 6-2-11-3-4 0-9 1 8 2-9 1-8-4-3 1 0-4-1-11-2 8-1-11 2-4-2-8 2 0 3 7 1-7-2-21 4-7 5-13 2 4 7-15-2-6 3-7 3 1-2-4 4 0-3-3 19 4-3-4 0-2 11 1-1 3 8-2 4 2 5-3-1-3 14-4 5-2 3-4 10-6-3 5 1 3 6-4 0 4 5-6-4-3 6-3 6 4 5-12 4 2 4-2 3 8 8 4 2-9-2-7-4-8zm29 24l2 4 5-3-7-1zm24 2l0 2 3 4 12-4-15-2zm-79 2l8 4-8-4zm67 2l0 2 5-1-5-1zm-106 14l-6 2 0 2 11-3-5-1zm-44 12l1 3-1 3-2-4-3 19 4-2 0-11q18 6 14-8l-4 4-9-4zm17 4l4 4-4-4zm24 0l8 4-8-4zm-61 40l-1 7 2 0-1-7zm2 8l-1 7 4-2-3-5zm0 14l-3 7 14 11 16-1-19-4-3-10zm0 16l-1 5 2 0-1-5zm22 6l0 2 5-1-5-1zm33 28l4 4-4-4zm-4 4l4 8-4-8zm4 8l8 8-8-8zm8 20l4 4-4-4zm-19 2l0 2 5-1-5-1zM529 552l4 6-4-6zM233 564l7 3-4 2 10 4-6 2 8 3 3-4 0-4 15 4 3 4 6-2 0 2-5 3 3-1 3 1-4 2 16 1 5-4 7 3-4 2 7 1 6-2 7 4-26-1 1-3-11 3 8 2-10 2 42 6-7 3 2 4 4-2 3 21-6 22 4 0-3 7-1-4-4 7-2 4 2 6-2 0-1-3-6 12-3-1-1 5-8-12-2 6-1-9 4-2 1 5 3-6 5 2 1-3-6-15-4-5-4-10 4 2 3 9 1-7-5-9-7 1 2-4-2-4 2 0 1 3 1-12q-19.2 3.9-16-11l-2-5-4-3-9-7-3 1-1-5-3 1 1 3-6 2 0-2 3-1-5-1-5 3-9-3-5 2-1 4-1-7 0-4 4-6-1-3 10 2 0-2-2-2zM217 574l-6 8-3-1 4-1 3-4 2-2zM217 580l3 3-1 5-6-2-7 2 7-4 4-4z"/><path fill="#FEFEFE" stroke="#FEFEFE" d="M231 582l3 1-5 3 2-4zM255 586l5 1-5 1 0-2zM389 608l1 5-6 4 5-9zM31 612l1 3-3 5-1-5 3-3zM125 612l2 8-5-3 4-2-1-3zM105 620l8 2 4-2 4 0 3 1-4 11 9 2 3-1-3 3 0 2 12 2-2-4-5-1 5-1 12 6 1-4 40 4 3 12 1-12q18.4-6.4 14 8l-6 3 4 12 12 9 3 4 0 2-4-2-1 4 14 3-1 3 9-2 8 7 5 1 15 12 4-4 4 4-8-17-4 0 9-3 5 1 1 3 7-3-6-2 6-4 3-3 3-1-4 29 16-12 4 11-1 3 4-2-1 3 2 12-2 5 4 5-2 5 8 2 1 8 4 0 8 4 3 6-7-2-4 2-5-3-320 3q-5-22.7 8-22l-6-5-2-7 11 8 21 8 8-4 3 4 6-2 30 2 9-4 1-4 2 4 1-5 3-5 9 2 2-7-2-5 4-3-1-5-3-11-2-5-6-7-6-9-8 3 6 4-3-1-5-3-3 1-3-1 1-3-3 3-4 2 5-17 2 4 1-8q13 4 10-15l2 0 4 7-4-15 2-5 13 8 1-5 3-7 0-2-2-2zm-25 48l0 5 4-2-4-3zm16 4l10 4-10-4zm119 0l2 4-2-4zm-4 4l-1 3 9 7 5-1-13-9zm14 6l0 2 5-1-5-1zm-113 2l0 3 1 5 7 8q3-18-8-16zm112 8l4 4-4-4zm7 0l-3 5 4 3-1-8zm10 4l1 3-10 1 16 4-7-8zm-121 4l4 4-4-4zm176 4l4 16-4-16zm10 8l0 3 4 2-4-5zm1 8l-1 9 2 0-1-9zm-11 8l8 8-8-8zm-188 4l4 4-4-4zm215 12l-3 3 4 1-1-4z"/><path fill="#FEFEFE" stroke="#FEFEFE" d="M129 624l3 6-4-1 1-5zM80 640l4 8-4-8zM412 700l4 1-4 2 0-3zM9 724l5 1-5 1 0-2z"/></svg>