<svg xmlns="http://www.w3.org/2000/svg" width="300" height="377"><defs/><path fill="#D87848" stroke="#D87848" d="M180.5 3l.5 2 2-.5-.5-1.5 8 1h2l2 1 1.5-.5 2.5 1.5 3.5 2.5.5-1.5 6.5 15.5-.5 1.5 1.5 3.5 2 7-2.5 6.5q-19-2-30-12l-1.5.5-.5-2.5-4-2L161 9.5l.5-2.5 2.5 1 .5-2 18 3V8L177 7l1.5-3 2-1z"/><path fill="#D87848" stroke="#D87848" d="M163 24l5 2.5 1.5 2.5 4 3 .5-2 3 1.5-3 1 2 4-9.5 3.5.5-1.5 1-3-2 1-3 7 1.5-.5 4-2 7-3 1.5.5.5-2.5 1.5 3.5-3 1 1.5 1.5 1.5-.5-2.5 1.5-2.5-1 4.5 2 3-1-1 3 6-3-.5 1.5 2.5 1.5 2.5 1-2 3.5 3 1.5-1.5 2-1.5-.5 1 2-2 3.5 3.5 2-.5 1.5 1 3.5 2 1.5.5 2.5 3 2 2.5 4 3.5 2 2.5-1 1.5 2h2l1.5-.5-1-2h1l2.5 3.5 2-3 2 1 4.5-2.5-.5-1.5 2.5 1 2-3.5 3-1 1.5-2.5h2l1.5-1.5 1-2.5 3.5-1-2.5 3.5-1 4.5-2 .5v2l-1 5.5-2 .5-1 3-5.5 6.5-2 1-1.5-.5-.5 1.5-1.5-.5-1.5 1.5-14 3-5-1v2l-6.5-1.5-5.5-13.5-1.5.5v-2l-3-5.5-3.5-1-1.5.5.5-1.5-1.5-1.5-2.5-.5q-8-1.5-9.5 3.5l-2 6 2.5 6.5 1.5-.5-1 5 3 1.5 4.5 7 2.5.5 1.5 3.5 2-1-1.5 2.5-.5 1.5-1.5-.5 1 2-3 9.5-2 1.5 7.5 14.5 2.5 1.5v2l-1 3-1.5 3.5-24 3-17.5-10-1.5 6-2.5-4.5v-2l-2.5-10.5-1.5.5-.5-7.5-3.5 2-2-17.5 9.5-14.5 1.5-1.5 3-11-4-11.5 15 6 1-9.5-1.5-5.5-.5 6.5 1 2-1 2.5-3.5-2q-11.3-10.2-34-9l-8 1-13-3-3.5 2.5-1 2 .5 1.5-2.5-1 1-4.5-.5-1.5 1.5-1.5-.5-1.5 4-2v-2l2.5-1.5h2l.5-1.5 2 1v-2l1.5.5.5-1.5 2.5 1 .5-2 3.5 1 .5-2 4 2 1.5-2.5-2.5-.5-1.5.5 9-7 1.5-2.5.5 2 2-.5-1-2.5 2 .5-.5 1.5 9 2 3-1v2l4 2 6 7 .5-1.5-.5-1.5 2.5 6 2-1.5h2l-1-2v-2l1.5-1.5v2l4.5 2.5-.5 1.5 3 2 2.5-3.5v-2l.5-3.5 1 3 10-6 1 2 2-3-7.5 1v-9zm-4 36l-1 3-1 1v2l-2 6 3 8 6-15 2-4-7-1z"/><path fill="#D87848" stroke="#D87848" d="M189.5 39l3.5 1-1 4.5 1 2-1.5-.5-3.5-1 1.5-6zM115.5 89l3.5 5.5-.5 1.5-4.5-5.5 1.5-1.5zM221.5 126l6.5 5.5-1.5-.5-5-5zM208 133l4 1.5 1.5 2.5 2 1h2l4 2q13.4 12.8 16.5 35l15.5 4 3-2 2 1 2.5.5-2.5 3.5-1.5-.5-1.5 2.5h-16l-.5-1.5 1-2.5-3 .5 1 2h-1l-.5-1.5-1.5.5-2-3 1-2-1.5.5-2.5-.5.5-1.5-1.5-.5 2-1-3-1 2-1-3-2 .5-3.5-1.5-2.5-1-3 1-3.5-2-3.5-1-2 1-2h-2l1-2-16-9h2l-4-4.5 2.5 1 .5-2zM226.5 134l8.5 6.5-1.5-.5-2.5-1.5-1.5-1.5-3-3zM202.5 147l6.5 7.5h-1l-5.5-7.5zM189.5 155l15.5 1 2 3.5-1 2.5 2 .5-1 3.5 2 1.5 3 6-3 2 3 1-19.5 8.5-5.5-4.5-3-17 3-7.5 2.5-1zM216.5 174v5l-.5-3-3-.5 3.5-1.5z"/><path fill="#D87848" stroke="#D87848" d="M214.5 177l.5 1.5-3.5 4.5v-2l-3.5 1.5 2 1-1.5.5-2.5-1.5 5.5-2.5 1.5.5 1.5-3.5zM219.5 179l1 2 1.5-.5v4l1.5 2.5v1l-1.5.5-1.5 3.5-2.5-11.5 1.5-1.5zM47.5 181l1 4 1-4 9.5 22.5-2-1-.5-1.5-.5 2.5 3.5 1.5 1.5.5-2 .5 1.5 3 2.5-1 5.5 11 2.5-.5.5-1.5 1.5.5.5-1.5 2.5 1 .5-2 2.5 1 .5-2 3.5 1 1.5-2 3 1 3-1 15 11 15 2 9.5-6.5 1-3-2-5 2.5-.5 6 1 4-1 4 1 3-1 3.5-1.5 1.5.5 2.5-.5-.5-1.5 23 1 13.5-2.5-.5-1.5 4 1q16.3-3.2 26-13l1 3 1.5-.5-.5 1.5 2.5 1.5 1 3 2 3-2 .5 1 5.5-1.5 2.5-2.5-5-2 1.5 1 4-1 2h2l-1.5 1.5-6.5-4.5-2.5-1.5-2.5-1-.5-2-1 4 2.5 1.5-.5 1.5 1.5.5-.5 1.5 1.5 1.5-2.5.5-2.5-1.5-.5-1.5-.5 3.5 2 3-.5 1.5 1.5 2.5 2 7-1 4h2l-2 20.5-2-1.5h-1l2 5.5-2.5-1-.5 1.5 1.5 2.5-2-1-1.5 6 2 2-2-1.5h-1l-1 4 1 2h-1l-.5-1.5-2.5 7.5.5 1.5-1.5-.5-1 4 .5 1.5-1.5-.5 1 2-3 1-2 5.5 2 .5-1.5.5-1.5-.5 1 2h-2l1.5 1.5v1l-2-1-.5 2 2 .5-5.5 12.5-1.5-.5 2 3-1 4.5-2 2.5 1 2.5-2 2.5 1 5h-1l-.5-1.5-.5 6.5h2l-1 4.5 3 1.5.5 1.5 1.5-.5-.5 1.5 8-1 5.5 1-1 2.5 2 .5.5-2q8 3.5 8.5 14.5l-3.5 4.5-3.5-2-2.5-6-.5 1.5 1 4q-5.6 5.9-18.5 4.5-14.5 0-20.5-8.5l1-11-4-13q9.2-13.3 8-37l-3-13q6.5-11.5 4-32l-1-17 2-6-5 4-6.5 10.5q-8 9-25 9l-12.5-3.5-.5-1.5-1.5 3.5h2l1 11h-1l-.5-1.5-2.5 7.5.5 1.5-2.5.5-6.5 7.5-5.5 3-3.5 2-5 2h-2L84 284.5 79.5 269l-3-2-15.5-9q-7-6.2-6-21.5l8.5-13.5 3.5-2.5-1.5-.5-6.5 5.5-3.5 6.5-14.5-7 4-3.5-14-12-1-5 2.5 1.5 4 2 .5-1.5-3-1.5-1.5-5-1.5.5 1-8.5 2.5-1 1.5 3.5.5 1.5 2.5.5 1.5 3.5 1.5-.5.5 2.5 1.5-4.5h-2l1-3v-2l.5-3.5 2.5 4.5-.5 1.5 3.5-1.5-.5-3.5-1 2v-11zM186 221l-3 1-6 7 1 4 9 4 15-3 2-4-1-4q-4-7-17-5zm-46 9l-2 1-5 11 10 5h2l4-2 3-4-1-7q-2-6-11-4zm-43 6l-1 2 3-1v2l3-1v2l3-1-8-3zm9 3l-1 2 2-1v2l2-1v2l2-1-1 2 3 1v-2l-7-4zm9 5l-2 2 6 4-1 2h3l-1-3-5-5zm75 62l-3 6 1 2 2-5v-3z"/><path fill="#D87848" stroke="#D87848" d="M201 184l5 .5q-13.5 7.3-34 6.5l-3.5-2v2l-2.5-1-1-3.5 2.5-.5 7 2 3 2 22-5 1.5.5V184zM258.5 239l3.5.5-4 1 16 1.5.5-2 4.5 2.5-2 1 2.5.5 2-1 1 3 2-1 3.5 2.5-.5 1.5 2 1 1-2 2 3-1.5.5 4 2.5.5 2 1-2 .5 1.5-.5 1.5 2.5.5-2 1 3 1-1 3.5-5-2-1.5-2-2.5-1.5 4 14-1.5 3.5-.5-2-5-3.5-1.5-4.5-.5 4.5 1 2-1 3.5q-14.9-1.1-21.5-12l-9-1-29 13-10 1-3.5-1-.5-2-5 4 2-3 6.5-2.5.5-2.5 6-5 1.5.5-1-2 3.5-5.5-.5 1.5.5 1.5 2.5-.5 1-4.5 2-.5-1-6h1l.5 1.5 2-1 2 3 .5-3.5-.5-1.5 3 1 1.5-.5-2 3 1.5-.5 13.5-6.5.5-2.5 5-2zM55.5 273l10.5 3 1.5 2 1.5 5.5 1 4-9.5 12.5-12.5 9.5.5 1.5-1.5-.5-.5 1.5-1.5-.5-1.5 2.5-2.5.5-.5 2.5-1.5-.5 1 2h-2l-2 6 .5 1.5-1.5-.5 1 3-2 .5 1 2.5-2 .5-1 5.5 1.5 3.5 10-1v2l4.5 2.5-1 2h2l-1 2h2l-1 3h2l-1.5 1.5-3 2-5-7-1.5 9-20.5 2L8 352.5l-2-9 3-5.5 2-1.5 3-1.5 5-7.5 4-24 9.5-10.5L53 275.5l1.5-1.5 1-1zM115.5 294q11.2-2.2 14.5 3.5l-2.5-1.5-12-1-2.5 1.5 3.5.5 7-1 4.5 2 3.5 4v-2l2.5 1-.5 2-1.5-.5 1.5 1.5 3.5 1 2 4.5-1 2 4 2 1 2-2-1-.5-1.5-.5 2.5 2.5 5.5 1-2 .5 6.5-2 3 2 3-2.5.5q-5.4 1.4-2.5-6.5l-2 1-3.5 6.5-2.5-1-1.5-6-5 6-9.5-2-3-15.5 3-10.5-29.5 5-9.5-3.5-1-4.5 2-1.5q4.8-5.2 16.5-3.5l12 1 10-3z"/><path fill="#FDFDFD" stroke="#FDFDFD" d="M0 0l186 .5L172.5 6l-6-1-8.5 4.5-3 26 1 3-3.5 4.5-6-7-1.5 1.5-1.5 5.5-9-13-14-5L104 36.5 99.5 38 81 49.5l-1 8L92.5 74l3 2L118 95.5q-6 9-4 26l1 2.5 3.5-2-.5 1.5-2 8 3.5 1.5 1.5-.5v2l4 11.5 2.5 1 1-4 7 13 3-5 24.5 9.5 6 22-4 3-1 15v2l-1.5 1.5q-9.9 7.6-28 7h-4l-10-1-2 1-13-1q-23.1-.6-37 8L64 208l-2-2.5Q52 195.1 51 177l-2 1.5h-1q-1.5-19.6 6-29.5l-12 5-4.5 6-.5-2-5 2q-6.8 7.5-7.5 22l-2-3q-4.8 6.7-2.5 20.5 4.6 21.4 18.5 33.5l13.5 6-1 13.5 1 9L40.5 278 21 293.5.5 343 0 0zM197.5 0H300v256.5l-2-1-6.5-7.5-4-2q-9.2-8.8-28-8l-21 9-2.5-.5-1-6.5 5 2 1-10.5-4-11 5-1.5-1.5-2-6.5-5.5-11-20 2-3q-1-11-8.5-15.5l-4.5-1.5-5-13.5 5 2.5 1.5 1.5 12.5 2q.1 12.4 8.5 18 5.8 5.2 19 3l9.5-6.5 2-17q-4.4-18.1-17.5-27.5l-17.5-7.5-1-2 1.5.5 19 1 20.5-13.5 5.5-8.5 14.5-3 2-3.5q6.4-5.6 5-19-2.4-15.6-13-23l-1-15-8.5-10.5-20-7q-13.7.3-19.5 8.5l-4 17 6 14L219.5 75l-1.5-.5-2.5 1.5-3.5 1q-2.2-19.8-16.5-29l-1.5-4.5 2.5-1.5 14 3 2.5-11.5Q210 14 199.5 2l-2-2z"/><path fill="#FDFDFD" stroke="#FDFDFD" d="M192.5 56l13.5 7.5 4 12.5q-4.9 1.8-3-4.5l-2-4.5-2-1.5-6.5-3.5-3.5 2-2-6.5 1.5-1.5zM167.5 72l12.5 4 8 15.5h-1l-1.5-2.5-2 3-.5-5-2-1.5-5.5-6.5-6.5 1.5-1 6 1 4.5 2 1.5 3 4.5 4 .5-.5 1.5 1.5.5-1.5.5-2.5-.5.5-1.5-2 1-1-3-2.5-1.5q-6.7-5.3-6-18l3.5-4.5zM299.5 266l.5 111-103-.5 15-6.5 1-8.5-5-9.5q-4.7-5.5-16.5-5h-2l-3.5-2.5-1-8q2.8-27 14-44.5l14.5 1 42.5-21 2.5-2 3.5 2 1.5 2q4.6 8.4 18 8l13.5-6.5 4.5-9.5zM115.5 280q17.3 10.4 43.5 11l3 17.5-8 36 8.5 25.5 12.5 6.5L0 377l.5-23 6 8q10.2 5.8 27 5l16.5-7 2-8.5-7.5-11.5-7-1h-2l-1.5-4.5L44.5 313l19.5-8 3.5 9q14.1 8.1 38.5 5l-1 9.5 5.5 8.5 19 7 12.5-6.5 3-19-17.5-24.5-11-1-19 2v-1l18-14z"/><path fill="#632821" stroke="#632821" d="M243.5 26l-1 2-1.5.5 3.5.5 2-1h2q20.5-.5 30 10l-.5-1.5-3.5-4.5-3.5-2.5 1.5.5 6.5 5.5 1 2-1 2h2l2 16-4.5 6.5-16-3-23 5q-9.5-6.5-7.5-24.5l7.5-11.5 4-2zM191.5 48l8.5 5.5 3 5-3.5-2.5-7-1-2 1 1-2 6.5-.5-8-3 1.5-2.5zM160.5 60l4.5 1.5-7.5 17.5-1.5-8.5 4.5-10.5zM195 63l10 5.5 1 7-2.5 1.5-1.5-3-4-1-2-3.5-2-4 1-2.5zM167.5 70l8.5 2.5-1.5-.5-6-1-3.5 2.5-2 6 1 5h-1l-1-7 3.5-6.5 2-1zM171.5 79l9.5 6.5 2 9-1 2.5-3.5 1-7.5-5.5-3-10 1-2.5 2.5-1zm2.5 2l-2 2 1 2 2 1 3-1-1-2-3-2zM194.5 113q16.6-1.1 23.5 7.5l7 10-5.5 1.5h-2q-9.9-1.9-13 3-9.2-6.8-11.5-20.5l1.5-1.5zM171.5 204l17.5.5-17.5.5v-1zM101.5 211l26 1 1.5-.5 1 6-5.5 6.5-14 1-14.5-9-1.5-3-1.5-.5 8.5-1.5zM187.5 221l13.5 3.5 2 6-3.5 4.5-11 2-9.5-4-1-4.5 4.5-5.5 5-2zM140.5 230l10.5 4.5 1 5-4.5 5.5-7 1-6.5-4.5-1-3 3-6.5 4.5-2zM42.5 277l-5 6 5-6z"/><path fill="#E8AC80" stroke="#E8AC80" d="M195.5 0v2l2-1v2l1.5 1.5 4 2-1 2 1.5 2.5 1.5-.5-1 2h2l-1 3h2-3L198.5 6 196 4.5l-2.5-.5-2-1-10 2V4l1.5-.5-.5-1.5 3 1V2l-1.5-.5 1.5-.5 3 1 7-2zM118.5 26l1 2 8-2 2.5 1.5-2 1 2.5.5 2.5.5 1.5 3.5 1.5 1.5 4 2-1 2h2l-1 2h2l-1.5 2.5-7-9-4-2v-2l-3 1-9-2-2 1v-1l2.5-1.5.5-1.5zM180.5 35l.5 4 2-.5-.5-1.5 3 1 1.5-.5-2.5 4.5-4.5-1.5.5-1.5-1.5-.5 1.5-3.5z"/><path fill="#E8AC80" stroke="#E8AC80" d="M188.5 38l.5 1.5-3.5 4.5-6.5-1.5 2.5-.5 4 1 3-5zM283.5 56l3.5 2q11.3 8.5 9 31.5l-2 5.5-5.5 5-14 5-1-2-1.5 5-3 .5 2 1-2 3.5-4 3.5-12.5 7.5-3 1-9 1-12-3-.5 1.5 4.5 5.5-3.5-.5 2-1-5.5-7.5-3.5 1-.5-2-3.5 1-1-2.5 2-1-2.5-.5-2 1v-1l1.5-.5-4.5-1.5-1.5.5-1.5-1.5-1.5.5.5-1.5-3 1v-2l-3.5 1-.5-2-2 1-2-1-2.5.5-4.5 7.5-.5-2.5 1-4.5 3-1.5 1.5-1.5 13-4 31 10h12q12.7-1.8 18.5-10.5L283.5 84l4 8q5.9 2.1 4.5-2.5h1l.5 1.5 1.5-15.5L283.5 56zM96.5 59l5.5 2.5-1.5-.5-1.5.5 3.5 4.5-6-7zM109.5 60l12.5.5-12.5.5v-1zM111.5 65l-2 5v-2l-1.5-.5 3.5-2.5zM209.5 68l1.5 3.5 1 4.5-2-.5 1-2-1.5-5.5zM117.5 72v2l2-1-1 2-2 1-1.5-3 2.5-1zM185.5 96l6.5.5-11.5 3.5v-3h2l3-1zM173.5 110q1.1 15.4 11 22l15.5 7 .5 2 1.5-.5.5 2.5 2-1 10 13h2l3.5-1 2.5-4-.5 1.5.5 2.5 1.5-.5-1 6h1l.5-2.5.5 2.5-1 2 1.5 2.5-3-1-3 1-9.5-5.5-1-3 1-2-19-12.5-.5-2-1.5.5.5-1.5-2 1v-2l-2 1-1-2h-2l-7.5-5.5-3-6 1-4h-1l-.5 1.5-.5-4.5h2l-1-5h2l-.5-2.5z"/><path fill="#E8AC80" stroke="#E8AC80" d="M236.5 130l6.5 2.5.5 2.5 1-2 1 2 1.5-.5 4.5 7.5 3 1-1-2-1.5-1.5-2.5-3.5 7 9 1.5.5-.5 1.5 2.5 1.5-1.5 2.5 2-1-1.5 2.5.5 1.5 2.5-1.5-2 3 1.5 3.5 2.5-1-2 5.5 1.5-.5 1.5 5.5v2l-.5 2.5-2.5-1 1 2.5-1 2 .5 1.5h-4l-2 1-2-1-7 1-9.5-4q-3.1-22.2-16.5-35l-4-2h-2l-3.5-1-1-3.5 8.5-1.5 11 5-2-3-3.5-1.5 11.5-2.5zM48.5 151l1.5.5-4 1.5-1.5 2-1.5 3-3-.5 8.5-6.5zM51.5 152l.5 2.5q-6.8 7.7-4 25l.5 1.5-1.5-1.5-1-11 5.5-16.5zM36.5 158l1 3 2.5-1-3 7.5v2l-1.5 5.5-2-5-2.5 5.5 1 2-1 2 1 4h-1l-2.5-5.5-.5 4.5v2l1 2-1 3 3 10-2-1v-2l-1.5-2.5-1.5.5.5-1.5-4-1 .5 1.5-1.5 6.5-1.5-13.5 1-4.5 3.5 1 3.5-16 2-2.5 3.5-4.5 3-2zM233.5 176l1 2 1.5-.5-.5 1.5 4.5 1-1.5 2-6-4 1 3q-5-2.5 0-5zM242.5 184l10.5.5-10.5.5v-1zM42.5 186l-.5 1.5-.5 9.5-.5-9.5 1.5-1.5zM52.5 194l2.5.5-1 2 1.5 2.5 1.5-.5-1 2 2.5 3.5 1.5-.5-1 2 3 1-1 2 4.5 7.5 1.5-.5-1.5 3.5-13-25zM228.5 203l9 13 4.5 2.5-3.5 1.5.5-1.5-1.5-1.5-8-10-1 4-.5-5.5.5-2.5zM235.5 218q6.3 6.6 4.5 20l-2 .5 2 .5-.5 3-4-3-1.5 2.5 2 5.5-2 1.5h2l-.5 2.5-3-2-1.5.5-.5-1.5-1.5 3.5 1 3-2.5 5.5-2-3-2.5.5 1 3-7.5 8.5-7 5-2.5-1.5 2-1-1-2h2l-1-4 1.5-3.5 1 3 .5-4.5-1-2h1l.5 1.5 2-5 3-2 3.5-5 5 4 2-9 5.5 3 .5-1.5-1-8.5 2-.5-1.5-2.5 3.5 2.5-2 1 1.5 2.5.5-2q3.8 1.1 2-7.5l-4-9 .5-2.5zM95.5 237l22.5 11.5 2 4-2-1-5.5-6.5-17-8zM260.5 238l4 1 3-1v2l12 3 1.5-.5-.5 1.5 2-1v2l2-1 1 3 3 1 1.5-.5 1.5 3.5 2-1 1 3 1.5-.5v2l.5 1.5 1.5-.5h-3l-1.5-1.5q-12.1-13.9-37.5-14.5l1.5-.5 4 1v-1l-1-1zM254.5 240l2.5 1.5-18.5 9.5-.5-2 6-2.5-.5-1.5 3 1 6.5-3.5-.5-1.5 2 1v-2zM164.5 255l.5 2-2 .5 2 14h-1l-.5-1.5-.5 4.5 1 2h-2l-1 5 .5 1.5-1.5-.5 1 2-2 1 1 2.5-2 .5.5 1.5q-25.7-.5-42.5-9l1.5-4 1.5.5 1-2v-2l3-15.5 5.5 2 12-1 13 2v-1l-8.5-.5q13.7 1.7 19.5-4.5zM207.5 264l.5 2.5-10 25 .5 1.5-1.5-.5 1 2h-2l1 2-3 1 1 2h-2l-1.5 3.5-.5-1.5 4-8-.5-1.5 1.5.5 11.5-28.5zM114.5 294l11 1 2-1 3.5 5.5 2.5 3.5 1.5-.5-.5 2.5-2.5-1-6.5-6-8-2-4 1v-1l1.5-.5-.5-1.5zM96.5 295l15.5.5-15.5.5v-1zM190.5 304l.5 1.5-1 3 .5 1.5-1.5-.5 1 4h-1l-.5-1.5-1 2-.5-2.5 3.5-7.5zM135.5 306l3.5 1.5h-2l1.5 2.5 1.5-.5-1 2 3 1-1 2h2l-1 2h2l-1.5 4.5-7-15zM91.5 318l15.5 1.5-1.5-.5-14-1zM198.5 350l5 2 1.5-.5 2.5 4.5 2.5.5-1 2 .5 1.5-7-8-4-2z"/><path fill="#B74E31" stroke="#B74E31" d="M176.5 5l.5 2 7 2.5-1.5-.5-6.5-1 .5-3zM165.5 6l9.5.5-9.5.5V6zM162.5 7l1.5.5-3 2L173.5 25l4 2q11.2 11.8 32 14l2-6 .5 6.5-8.5 2.5-9.5-3-.5 2-.5-3-6-3.5-.5-1.5-1 2-5.5-3-.5-2-5.5-2.5 3 8.5-11 3-1.5 2-1.5.5 5-10-1.5.5-9 5-1.5-3.5q-2.2-18.2 4.5-27.5l2-1zm.5 17v9l6-1 2 1-4 6 9-2-2-4-4-4-2-2-5-3zM250.5 24l11 2 2.5-1 .5 2 2-1v2l2-1 1 2 1.5-.5.5 1.5 1.5-.5-1 2.5 6 3.5.5 1.5 1.5-.5-.5 1.5 1.5.5-2 1-1.5-1.5q-8.5-11-29-10h-2l-5 1-1-2 2 1v-2h4l4-2zM105.5 37l3 1 2-1 7.5 2.5-2.5.5-8-2-4 1v-1l2-1z"/><path fill="#B74E31" stroke="#B74E31" d="M187.5 42l.5 3 5 2.5-1.5.5-5.5-2 1.5-4zM144.5 44l-.5 1.5 4 21-1 3.5-15-6 4 17.5-3 6.5-5 3.5-6 15 2 13.5 3.5-2 1 8 2.5.5 2 10-1 2 2.5 3.5 1.5-6q7.9 12.5 31.5 10l12.5-5.5v-2l-1-3 1.5-.5 27.5 18.5 2 4h-1l-.5-1.5-2.5.5-.5 1.5-.5-2-15.5-1-2.5 1-3 17.5 6.5 10.5 3 1 18.5-8.5-1-2.5 7 1 1.5 2-.5 1.5-1 5 2.5 9.5 3-5 .5 1.5-3 4 2 .5 1 2.5-3.5-2.5q-22.8 18.7-67 16v-1l6.5-1 1.5-2q6.5-3.5 4.5-15.5h-1l-.5 6.5-.5-7.5 2-1 1.5 1.5 4.5-1q-.8 4.7 11.5 2l17.5-4.5-2.5-1.5-22 5-6.5-2-2.5-2-1.5.5 1.5-1.5 2.5-1 .5 2 .5-2.5v-2l-8-24.5-19-3-2.5-2-5.5-2-2 4-5.5-13-1.5 1.5h-3l-2-10.5-4-1.5 2-9.5-4-1.5-1-11 4-14-3.5-5.5-2 1-5.5-4-1.5-2-1-2 1.5-.5-6-2-5-5-9-7-5-9 3.5-4.5 4-1 18 3 12-1 24.5 9 2 2 1-3.5-4-17 1.5-1.5zM104 58l-8 2 22 17 1 2 10 3-3-21-22-1v-2zm68 146l-1 2 18-1-17-1zM179.5 74l4.5 5.5-5-4 .5-1.5zM222.5 74l1.5.5-7.5 3.5v-1l6-3zM227.5 130l1.5.5-4 2 2 1-1.5.5-2.5-1.5 4.5-2.5zM215.5 139l6 7-6-7zM263.5 173l.5 1.5-4.5 6.5 1.5-2.5 2.5-5.5z"/><path fill="#B74E31" stroke="#B74E31" d="M220.5 179l2.5 7.5h-1l-1.5-7.5zM23 192l2 1.5 6.5 7.5 2-1 .5 5 3 1.5-.5 1.5-6-4-.5 2.5L40.5 219l4.5 2.5-4 3.5 14 6 .5 2 8-12 4-2-3 4-3.5 2.5-5.5 10.5-1.5-.5-1 2 2 .5q-.8 13.7 6 20l17 9 1.5 2 7 18 8 2 3-1 7.5-1 1.5-2 10.5-9.5 4.5-10.5.5 3.5-5.5 9.5-2.5 1.5-4.5 5.5-3.5 1.5-1.5 1.5-6 5-1-2-1.5 5 10 .5-11.5.5-11-1-6.5 3.5-2 4 2.5 3.5 13 2 24.5-5-3 18.5 3 7.5 9.5 2 5-6 1.5 6 2.5 1 5-8 .5 7 3.5-1 .5 2.5-3.5 5.5-3 1-3.5-2-2 5-4.5-1-2.5 1-2-3.5-3.5-1.5-2 1-4.5-2.5-.5-1.5-3.5-1.5h2l-1.5-1.5v-2l-1.5-1.5-1-6 3-5-1.5-.5-23 1-18.5-6-1-2.5v-2l1-3-2.5-.5-2 1h-2l-2.5.5.5 1.5-10 4 1-2L66 294.5l4-9-1-2-1.5-4.5 1.5-.5-3-.5-1.5-2-9-3-2.5 1-9.5 11L25 300.5q-6.4 10.1-6 27l-5 7.5-3 1.5-2 3-3 4 4.5 11.5q6.7 5.8 21 4l8.5-2 1.5-9 5 7 4.5-2-2.5 3v1l1.5.5-2 .5-1.5 2-6.5 3.5 1-2-2 1-2.5 1.5-3.5 2-.5-3-.5 2-11.5-1-2.5-.5-2-1.5-1.5 2-6.5-2-2.5-2-3.5-6.5.5-1.5-2.5-1.5 1-5 1.5-3.5v-2l2.5-.5-2-1 4-2-.5-3.5 2.5-.5-2-1 2-1v-2l1.5-1.5 1.5-3.5 1.5-3.5 1.5.5-1.5-1.5v-1l1.5-1.5-.5-1.5 1.5-.5v-4l5.5-15.5 1.5-.5 1.5-3.5 2.5-.5-.5-1.5 3-2 3 1v-2l1.5.5 2.5-4.5 1 2 2-3 1.5-1.5 2-3.5 2-.5 1.5-3.5 1.5-2.5 6-12-2-13 2-5-9-3.5 1-2.5-1.5-.5h-2l-3.5-2.5-2.5-3.5-.5 1.5.5 1.5-6.5-7.5-2-4q-6.7-9.7-5-26.5zM34.5 192l7 8 1.5-2.5h1l-1.5 4.5-8-10zM97.5 216l6 7-6-7zM182.5 222l1.5.5-5 4-1.5 3.5-.5-1.5 5.5-6.5z"/><path fill="#B74E31" stroke="#B74E31" d="M170.5 233l.5 2.5-2 20 1 21-4 18q5.1 6.9 3 21l-8 28 4 11-1 8q8.2 10.8 29.5 8.5l9.5-4.5-3-8h3l-1 2 3 5-.5 1.5 3.5 1.5-.5 2.5h-2l-3 2-1-2-1.5 4-3.5 1-2.5-1.5-1.5 2.5-3-1h-2l-2 1-2-1-4 1-7-3-1.5.5-.5-2.5-1 2-1-3-1 2-3.5-6-3-.5 2-1-3-.5-5-26.5q9.2-12.8 7-37l-3-12 7-18-1-7 1-2-1-7.5q-11 6.2-31.5 4l-10.5-2-.5 7q.5-16-10-21L93 235.5l2.5-.5q16 3 24.5 13.5l3.5 6.5 14 2q16-1 23.5-10.5l9.5-13.5z"/><path fill="#B74E31" stroke="#B74E31" d="M133.5 240l3 4 3.5 1.5-1.5.5-5.5-4.5.5-1.5zM290.5 257l3.5 2 1.5 2 3.5 2 .5-3 .5 2.5-5 11.5-2-.5 1-7-3.5-9.5zM254.5 262l9 1q6.6 10.9 21.5 12l1-4.5-1-5h1l4.5 7.5 3 2v1l-3 2h-2l-3-1-2 3-8 1-8.5-4.5-1.5-1.5-4-6-1 2-2-4-2.5 1.5.5 1.5-1.5-.5-.5 1.5-1-2-1 3-1-2-2 3-4 2-2.5 1-4.5 4-9.5 4-1.5 2-6 3-1.5-.5-3.5 1.5-13 2-4-1-1.5.5 8.5-19.5.5 1.5-1 3 2.5-1.5 3-2 .5 2 8.5 1 34-14zM43.5 312l-3.5 4.5-1.5 3.5-.5-1.5 5.5-6.5zM32.5 339l13.5 3.5-1.5-.5-11-1-1-2z"/><path fill="#F9D8A1" stroke="#F9D8A1" d="M110.5 30l-6 7 6-7zM176.5 32l11.5 6.5-2.5 4.5-6.5-1 2-6.5-1.5.5-3-4zM283.5 54l2.5 3.5.5 2.5 4.5 2.5 1 2h-2l1.5 2.5 1.5-.5-1 2h2l-1 3h1l.5-1.5 1.5 4.5-2.5 16.5-1-2-.5 2.5.5 1.5-6.5-2.5-2.5-6.5-9.5 11.5 1.5 2.5-3-1-7 11q-8.1 8.9-27 7l-32-10-13.5 4-1 2.5.5 1.5-2.5-1-1 6.5 4-2 13 22.5 15 7 2 7.5h-1l-.5-2.5-1.5 3-3.5 1-4.5-.5 1-2-8.5-10.5-2 1-1-3-2.5 1.5 1-2.5-22-13.5-3.5-14.5-1 2-.5-1.5 7-11-2.5-1.5v2l-3.5-1.5-1.5-2.5-1.5-.5 1.5-.5 2.5.5-.5 1.5 2 1 4-1 3 1 27-4L229 84.5 239.5 64l4 1 26-5 9 3 3.5-6 2-.5-.5-2.5zM98.5 60l2 1 8-1 17.5 2 2 18.5h-1l-.5-2.5-.5 2-10-5.5.5-1.5-2 1-16-14zM296.5 78l.5 9.5h-1l.5-9.5zM112.5 89l5 6-5-6z"/><path fill="#F9D8A1" stroke="#F9D8A1" d="M185.5 89l2.5.5-1 2.5 2 4-4.5 1-1.5-2.5 2-4 .5-1.5zM114.5 106l.5 15.5h-1l.5-15.5zM268.5 110l2.5.5-8.5 9.5 6.5-7.5-.5-1.5-1.5.5 1.5-1.5zM211.5 115l7.5 2.5-2.5.5-5-3zM260.5 120l-1 2-5 2v-1l6-3zM219.5 121l8 4 1-2 1 2 4-1 6.5 1.5-5.5.5-4-1v4l-5 1-2.5-4-2-1.5-1.5-3.5zM248.5 137l5 6-2-1-2.5-.5-1-3 .5-1.5zM51.5 149l2.5.5-3 1 3 1-1.5 2.5-1-2-3.5 9.5h1l.5-1.5.5 1.5-1.5 4.5-1-4-1.5 16.5 1 8-1 2 1 4-2-1-2.5-5.5-1.5 10.5 1 2-6-5-2.5-4.5q-4-.2-1.5 10.5h-1l-1.5-6.5-.5 2.5 1 2-3-2-1-2 3-1-1-5v-2l1-2-1-5h1l2.5 5.5.5-3.5-1-2 1-2v-2l1.5-4.5 2 5 2.5-6.5-1.5-2.5 2.5-.5 1-6-3 2-.5 1.5-.5-1.5 5.5-3.5 1.5-1.5 3-1.5-.5-2-1.5.5 7.5-4.5zM230.5 205l1.5 2.5-1 2 3 1v2l1.5 2.5 2.5.5-.5 1.5 2-1 2.5 1.5-1.5.5-1.5-.5 1 2-5-1 1.5 3.5 1.5-.5-1 2h2l-1 5 1 8.5-2.5 1-3.5-2 1 9.5-2.5-1.5-3.5-1-1 6.5 1 2h-1l-.5-1.5-.5 2-5-4-3.5 5-3 2-5 15-.5-2.5 5-33-6-16 1.5.5 5.5 2-5-10.5 1.5-.5 9.5 6 3 2 .5-7 3 5 1.5-2.5-1-2 1.5-4.5 1.5.5-.5-2.5zM105.5 210l12.5.5-12.5.5v-1zM135.5 210l9.5.5-9.5.5v-1zM32.5 226l6 7-6-7z"/><path fill="#F9D8A1" stroke="#F9D8A1" d="M224.5 254l.5 2.5-3.5 5.5.5-1.5 2.5-6.5zM163.5 257q4-.2 1.5 10.5h-1l-.5-10.5zM144.5 260l9.5.5-9.5.5v-1zM162.5 276l.5 3.5-2.5 4.5-.5-1.5 2.5-6.5zM204.5 371l3.5.5-6.5 3.5 3-4z"/></svg>